<?xml version="1.0" encoding="UTF-8" standalone="no"?>
<!-- Created with Inkscape (http://www.inkscape.org/) -->

<svg
   version="1.1"
   id="svg2"
   width="1325.3333"
   height="1153.3333"
   viewBox="0 0 1325.3333 1153.3333"
   sodipodi:docname="logo-qargo.eps"
   xmlns:inkscape="http://www.inkscape.org/namespaces/inkscape"
   xmlns:sodipodi="http://sodipodi.sourceforge.net/DTD/sodipodi-0.dtd"
   xmlns="http://www.w3.org/2000/svg"
   xmlns:svg="http://www.w3.org/2000/svg">
  <defs
     id="defs6" />
  <sodipodi:namedview
     id="namedview4"
     pagecolor="#ffffff"
     bordercolor="#000000"
     borderopacity="0.25"
     inkscape:showpageshadow="2"
     inkscape:pageopacity="0.0"
     inkscape:pagecheckerboard="0"
     inkscape:deskcolor="#d1d1d1" />
  <g
     id="g8"
     inkscape:groupmode="layer"
     inkscape:label="ink_ext_XXXXXX"
     transform="matrix(1.3333333,0,0,-1.3333333,0,1153.3333)">
    <g
       id="g10"
       transform="scale(0.1)">
      <path
         d="m 2534.34,16.0195 c 5.15,8.5508 47.77,82.5313 94.72,164.3715 101.92,177.73 630.28,1092.309 644.34,1115.349 l 9.8,16.13 55.08,-92.92 C 3463.91,1006.91 4037.7,11.0195 4037.7,4.96094 4037.7,2.10938 3756.25,0.390625 3281.33,0.390625 H 2524.92 Z M 5895.31,4.33984 c 0,2.14063 138.91,244.60916 308.67,538.78116 169.77,294.18 338.79,587.189 375.59,651.139 36.84,63.9 68.24,116.29 69.84,116.4 1.64,0.08 53.29,-86.79 114.85,-193.04 C 6966.8,767.891 7392.23,30.0391 7399.96,15.082 l 7.62,-14.691375 h -756.13 c -415.86,0 -756.14,1.800785 -756.14,3.949215 z M 3993.44,274.961 c -125.35,215.43 -319.49,551.09 -529.14,914.879 -52.15,90.59 -93.4,166.18 -91.57,167.97 4.61,4.61 1230.9,7.66 1383.68,3.4 l 125.86,-3.48 -5.32,-10.27 C 4860.74,1316.33 4133.87,56.8711 4129.1,51.7617 4127.15,49.6523 4066.09,150.082 3993.44,274.961 Z M 5771.72,111.52 c -47.89,80.472 -301.13,517.781 -529.14,913.68 -95.74,166.32 -178.13,309.06 -183.01,317.22 l -8.87,14.85 147.5,3.16 c 179.5,3.83 1182.74,3.01 1290.32,-1.09 l 77.18,-2.93 -196.25,-340.82 C 6152.07,638.09 5831.13,82.4219 5818.16,61.0898 l -8.32,-13.6679 z M 7380.04,239.34 C 7109.92,702.5 6735.2,1355.47 6737.93,1358.2 c 4.02,4.03 1502.93,3.87 1506.95,-0.15 1.76,-1.76 -38.32,-75.2 -89.06,-163.21 C 7608.13,244.41 7501.29,59.6094 7496.64,54.5313 7492.54,50.082 7464.53,94.4922 7380.04,239.34 Z M 2375.55,155.199 c -61.37,104.68 -307.03,529.063 -555.04,958.781 l -139.92,242.43 202.96,2.93 c 111.65,1.6 361.72,2.89 555.75,2.89 194.06,0 443.67,-1.29 554.68,-2.89 l 201.88,-2.93 L 2978.4,979.609 C 2582.85,294.301 2442.42,53.1992 2438.87,53.1992 c -1.92,0 -30.43,45.9024 -63.32,101.9998 z m 906.17,1254.251 -19.22,11.37 -2.38,406.33 -2.42,406.33 -24.34,9.06 c -13.4,5 -33.32,16.76 -44.22,26.09 -18.98,16.25 -20.47,16.68 -33.24,10 -7.38,-3.83 -71.68,-40.62 -142.89,-81.79 -71.21,-41.18 -132.19,-74.85 -135.51,-74.85 -5.39,0 -28.24,37.74 -24.53,40.47 0.86,0.63 45.82,26.6 99.96,57.74 54.1,31.13 117.85,68.35 141.64,82.73 l 43.28,26.13 0.24,54.3 0.23,54.26 -324.3,186.6 c -194.45,111.87 -331.09,193.4 -341.21,203.63 -9.29,9.38 -24.96,32.38 -34.8,51.1 l -17.89,34.06 v 777.3 l -27.82,10.16 c -15.31,5.58 -36.44,17.5 -46.99,26.52 l -19.18,16.41 -141.4,-81.64 c -77.78,-44.92 -143.68,-82.58 -146.45,-83.67 -2.77,-1.1 -10.15,7.11 -16.4,18.24 l -11.37,20.23 11.01,7.5 c 6.06,4.14 70.55,42.11 143.32,84.34 l 132.31,76.8 -0.04,54.8 v 54.8 l -347.7,200.4 -347.69,200.35 v 59.72 l 347.62,200.51 347.57,200.47 0.43,54.84 0.39,54.85 -136.28,78.83 c -74.93,43.35 -139.46,81.13 -143.32,83.98 -6.14,4.41 -5.71,7.85 3.35,25.59 7.07,13.82 12.7,19.57 17.47,17.77 3.82,-1.49 68.86,-38.4 144.45,-81.99 75.62,-43.64 140.04,-79.34 143.16,-79.34 3.13,0 9.77,4.69 14.81,10.35 5.04,5.71 24.8,17.66 43.94,26.57 l 34.81,16.21 v 773.43 l 19.33,36.72 c 10.63,20.2 23.17,41.33 27.85,46.92 4.69,5.58 119.65,74.41 255.47,152.89 135.82,78.51 284.81,165.23 331.1,192.73 l 84.14,50 v 52.23 c 0,47.19 -0.94,52.77 -9.73,58.4 -27.42,17.57 -100.51,60.74 -177.77,105 -47.5,27.22 -89.38,52.26 -93.01,55.66 -5.62,5.16 -5,8.79 3.98,23.32 5.82,9.45 13.32,17.19 16.61,17.19 4.8,0 141.56,-76.76 270.04,-151.49 l 19.96,-11.64 18.71,15.63 c 16.68,13.94 40.31,26.37 64.92,34.14 7.93,2.5 8.4,26.17 8.4,407.97 v 405.27 l 22.3,13.09 22.31,13.04 19.68,-9.64 c 10.86,-5.32 169.65,-96.22 352.93,-202.04 l 333.25,-192.34 17.46,15.74 c 9.61,8.71 29.72,20.9 44.76,27.11 l 27.31,11.33 v 334.22 h 48.01 v -335.82 l 13.2,-3.17 c 19.92,-4.8 47.07,-19.45 64.76,-34.96 l 15.82,-13.9 333.52,192.73 333.48,192.74 h 115.39 l 88.71,-51.1 c 385.62,-222.15 524.06,-301.79 545.23,-313.63 l 24.53,-13.75 18.25,18.24 c 15.74,15.74 45.31,32.46 75.5,42.7 7.78,2.61 8.4,14.65 8.4,161.36 v 158.56 h 47.85 l 1.29,-158.63 1.25,-158.68 28.4,-11.52 c 15.63,-6.37 37.31,-20.27 48.2,-30.94 10.86,-10.7 21.45,-19.41 23.48,-19.41 2.03,0 117.5,65.59 256.6,145.74 278.95,160.74 386.37,221.92 417.66,237.81 l 20.7,10.55 42.58,-24.92 v -825.08 l 30,-14.14 c 16.48,-7.77 35.39,-17.7 41.99,-22.03 11.84,-7.77 14.06,-6.68 159.65,76.99 86.45,49.69 150.59,83.71 154.81,82.11 7.14,-2.73 25.07,-35 21.21,-38.24 -1.14,-0.94 -67.5,-39.3 -147.5,-85.24 -138.13,-79.37 -145.28,-84.18 -142.5,-95.54 1.6,-6.6 4.1,-30.82 5.58,-53.83 l 2.7,-41.76 330.78,-190.94 330.82,-190.93 18.71,-28.87 c 41.76,-64.3 38.52,-26.06 38.52,-458.44 v -383.16 l 22.03,-7.5 c 12.11,-4.1 32.69,-15.16 45.7,-24.49 28.24,-20.32 5.35,-29.38 183.05,72.61 70.62,40.55 130.23,73.67 132.5,73.67 6.79,0 21.99,-38.24 17.15,-43.08 -2.43,-2.42 -66.84,-40.7 -143.13,-85.04 l -138.75,-80.66 -0.94,-107.58 348.01,-201.02 347.97,-201.05 v -60.51 l -347.5,-200.47 -347.5,-200.51 v -108.67 l 141.05,-81.68 c 77.58,-44.96 141.64,-84.96 142.39,-88.91 0.7,-3.98 -3.13,-14.37 -8.52,-23.16 l -9.8,-15.94 -34.65,19.03 c -19.06,10.47 -85.24,48.32 -147.07,84.14 l -112.46,65.08 -16.49,-14.5 c -15,-13.2 -43.04,-28.36 -64.65,-34.96 -7.89,-2.42 -8.39,-25.04 -8.39,-386.13 0,-380.98 -0.08,-383.71 -10.24,-406.95 -5.62,-12.89 -18.71,-36.37 -29.06,-52.19 l -18.83,-28.83 -245.74,-141.37 c -135.16,-77.77 -284.61,-164.45 -332.11,-192.61 l -86.41,-51.25 0.35,-51.14 c 0.24,-37.69 2.11,-52.93 7.19,-57.85 3.79,-3.67 67.35,-41.72 141.25,-84.53 73.95,-42.81 135.35,-78.59 136.49,-79.57 3.82,-3.32 -14.03,-35.55 -21.25,-38.32 -4.26,-1.64 -65.59,30.98 -149.26,79.37 l -142.07,82.15 -19.1,-15.11 c -10.51,-8.32 -31.37,-20.08 -46.33,-26.18 l -27.27,-11.09 -2.42,-406.17 -2.38,-406.17 -44.38,-25.16 -349.8,202.03 -349.81,202.07 -14.41,-11.64 c -13.87,-11.21 -53.4,-32.11 -70.78,-37.38 -7.81,-2.38 -8.44,-14.77 -8.44,-170.7 V 1411.6 h -47.85 l -1.25,168.67 -1.29,168.68 -20.55,6.05 c -11.29,3.36 -31.95,14.69 -45.9,25.2 l -25.31,19.14 -333.32,-192.66 -333.32,-192.7 -57.58,0.12 -57.61,0.12 -333.09,192.65 -333.05,192.7 -24.02,-18.98 c -13.2,-10.47 -33.09,-21.41 -44.18,-24.38 l -20.16,-5.39 -3.16,-110.82 c -1.72,-60.94 -3.12,-137.27 -3.12,-169.61 v -58.79 h -48.01 v 168.17 c 0,155.89 -0.63,168.32 -8.4,170.78 -25.82,8.16 -48.83,20.47 -64.26,34.33 l -17.46,15.67 -272.93,-157.54 c -368.75,-212.78 -426.99,-245.9 -431.91,-245.35 -2.35,0.23 -12.89,5.54 -23.44,11.79 z m 1570.43,101.76 c -1.17,1.95 -58.83,101.88 -128.13,221.99 -69.29,120.12 -138.86,240.47 -154.57,267.46 l -28.63,49.07 -22.34,-11.37 c -36.1,-18.36 -233.05,-132.58 -239.22,-138.71 -3.09,-3.13 -6.33,-17.35 -7.19,-31.64 l -1.56,-26.02 288.01,-166.83 c 158.39,-91.76 289.72,-167 291.87,-167.19 2.15,-0.2 2.93,1.25 1.76,3.24 z m 693.05,262.07 122.69,70.7 -5.19,26.1 c -2.86,14.33 -7.31,28.12 -9.89,30.62 -6.44,6.25 -198.9,117.85 -232.58,134.85 l -27.26,13.75 -8.2,-13.91 c -56.37,-95.43 -300.67,-520.94 -300.67,-523.67 0,-3.36 76.8,40.19 461.1,261.56 z m -1467.9,262.34 22.82,6.76 v 338.36 c 0,195.08 -1.8,336.45 -4.22,333.83 -2.35,-2.5 -54.92,-92.03 -116.92,-198.98 -160.62,-277.19 -190.85,-330.28 -190.85,-335 0,-7.23 253.04,-155.24 261.6,-152.97 2.61,0.7 15.04,4.29 27.57,8 z m 253.79,62.9 c 69.65,39.88 128.21,73.51 130.16,74.64 1.95,1.18 -1.6,12.31 -7.89,24.69 -11.64,22.93 -170.08,299.61 -252.62,441.21 l -45.43,77.89 -3.55,-61.09 c -1.96,-33.59 -3.05,-184.92 -2.38,-336.29 l 1.13,-275.27 24.02,-8.52 c 13.17,-4.65 25.31,-8.79 26.95,-9.14 1.61,-0.35 59.93,31.99 129.61,71.88 z m 1425,-63.09 26.41,9.1 1.25,327.11 c 0.66,179.88 -0.59,330.31 -2.77,334.26 -2.93,5.19 -29.42,-36.45 -95.67,-150.35 -168.43,-289.53 -216.25,-373.52 -214.37,-376.6 1.01,-1.68 52.11,-32.78 113.51,-69.07 61.41,-36.29 118.13,-70 126.06,-74.84 17.34,-10.7 13.44,-10.7 45.58,0.39 z m 237.19,51.33 c 58.32,33.44 117.31,67.93 131.13,76.68 l 25.08,15.9 -60.31,104.53 c -157.58,273 -249.22,428.51 -252.58,428.51 -2.03,0 -3.67,-150.15 -3.67,-333.75 0,-313.63 0.47,-333.9 8.4,-336.33 4.61,-1.44 14.88,-5.54 22.77,-9.14 7.93,-3.59 16.37,-6.68 18.79,-6.87 2.42,-0.16 52.07,27.07 110.39,60.47 z m -2138.71,410 c 85.35,148.04 154.34,270.04 153.28,271.09 -1.91,1.92 -420.39,-238.4 -526.29,-302.23 l -54.53,-32.89 3.24,-24.57 c 1.76,-13.51 5.36,-26.71 7.97,-29.37 4.92,-5 254.46,-150.63 258.67,-150.98 1.33,-0.11 72.27,120.9 157.66,268.95 z m 832.42,-192.42 c 94.38,53.98 129.06,76.21 130.55,83.59 1.09,5.55 3.32,18.05 4.88,27.81 l 2.85,17.78 -75.78,44.96 c -104.02,61.72 -486.4,280.54 -497.89,284.88 -11.05,4.22 -15.12,11.76 135.55,-250.16 137.85,-239.61 165.12,-285.5 168.55,-283.79 1.57,0.79 60.63,34.5 131.29,74.93 z m 1681.8,-1.14 131.09,75.59 2.97,19.84 c 1.64,10.9 2.23,23.79 1.29,28.64 -0.94,4.84 -17.89,18.82 -37.66,31.05 -30.27,18.71 -426.09,246.99 -515.31,297.15 l -28.08,15.82 18.51,-33.48 c 40.55,-73.4 292.23,-509.84 294.1,-510 1.1,-0.11 60.98,33.79 133.09,75.39 z m -921.99,36.02 c 174.8,303.08 242.34,422.54 240.15,424.73 -3.71,3.71 -550.27,-311.18 -569.72,-328.21 -6.21,-5.43 -6.92,-11.37 -3.79,-31.25 2.15,-13.47 4.53,-25.08 5.27,-25.82 10,-9.37 254.26,-146.29 261.02,-146.29 3,0 33.2,48.09 67.07,106.84 z m -1733.09,320.62 c 110.9,64.22 216.64,125.55 235.04,136.25 l 33.44,19.5 -131.84,2.96 c -72.5,1.65 -213.4,3.25 -313.05,3.6 l -181.21,0.66 v -309.96 l 13.36,-7.85 c 7.31,-4.34 17.23,-12.19 21.96,-17.46 8.59,-9.45 9.22,-9.22 64.68,23.01 30.82,17.89 146.76,85.07 257.62,149.29 z m 3314.42,-30.19 c 128,73.87 253.04,146.21 277.85,160.82 l 45.04,26.52 -49.85,3.17 c -27.42,1.75 -168.67,2.5 -313.87,1.71 l -263.98,-1.48 -1.29,-150.86 -1.25,-150.9 22.85,-20.27 22.89,-20.24 14.38,8.6 c 7.93,4.76 119.18,69.06 247.23,142.93 z m -3838.01,-132.03 21.4,15.58 0.28,154.81 0.31,154.8 -286.8,-0.51 c -157.73,-0.23 -298.67,-1.87 -313.2,-3.59 l -26.41,-3.12 112.82,-65.67 c 234.45,-136.48 463.32,-267.89 466.71,-267.89 1.92,0 13.13,6.99 24.89,15.59 z m 1676.05,-5.51 c 10.24,11.33 45.39,30.04 65.55,34.88 l 13.2,3.21 v 286.25 l -166.4,3.16 c -193.72,3.71 -385.9,3.28 -457.62,-1.02 l -50.39,-3 98.08,-57.58 c 259.81,-152.58 473.87,-275.31 480.79,-275.63 4.21,-0.23 11.75,4.18 16.79,9.73 z m 425.78,106.87 c 251.41,145.16 359.61,208.68 365.51,214.5 2.85,2.81 -121.41,4.53 -330,4.53 h -334.53 v -39.61 c 0,-21.8 -1.41,-86.06 -3.09,-142.81 l -3.08,-103.21 24.22,-8.4 c 13.28,-4.64 34.65,-15.86 47.46,-24.92 12.81,-9.06 25,-16.6 27.15,-16.76 2.11,-0.15 94.96,52.35 206.36,116.68 z m 1263.36,-101.36 21.21,15.58 0.39,309.61 -265.19,-0.04 c -145.86,0 -286.29,-1.44 -312.07,-3.16 l -46.84,-3.09 44.46,-26.68 c 88.51,-53.16 529.33,-307.69 533.04,-307.77 2.11,-0.04 13.36,6.91 25,15.51 z m -2621.36,420.54 47.42,3.05 -112.23,65.35 c -200,116.53 -456.05,263.99 -462.85,266.6 -3.67,1.41 -16.45,-5.46 -28.4,-15.27 l -21.8,-17.85 v -306.06 l 265.24,0.59 c 145.86,0.31 286.52,1.91 312.62,3.59 z m 2642.81,150.63 -0.16,154.8 -21.4,16.14 c -11.76,8.86 -24.15,15.07 -27.47,13.79 -5.93,-2.27 -343.43,-197.43 -496.28,-286.96 l -77.47,-45.35 55.86,-2.66 c 30.75,-1.44 170.9,-3.04 311.49,-3.59 l 255.58,-0.98 z m -2719.42,165.23 c -83.86,144.77 -159.02,274.53 -167.07,288.36 -8,13.87 -15.82,25.24 -17.34,25.24 -3.67,0 -198.83,-112.93 -223.05,-129.07 l -19.02,-12.69 -0.27,-52.19 -0.24,-52.15 18.32,-11.56 c 75.43,-47.62 556.29,-323.91 559.03,-321.17 1.17,1.13 -66.49,120.51 -150.36,265.23 z m 2259.65,-158.59 c 197.5,113.67 332.62,192.58 368.09,214.96 l 20.97,13.24 -3.04,27.19 c -1.68,14.96 -1.13,37.5 1.21,50.08 4.02,21.52 3.55,23.44 -8.32,31.8 -12.23,8.67 -195,114.06 -221.95,128 l -13.44,6.96 -45.08,-75.63 c -42.73,-71.68 -273.98,-471.44 -286.02,-494.41 -3.08,-5.98 -4.61,-10.82 -3.39,-10.82 1.25,0 87.18,48.86 190.97,108.63 z m -3524.37,150.59 c 120.93,209.14 187.5,326.95 187.5,331.87 0,1.8 -58.44,37.07 -129.89,78.4 l -129.88,75.19 -26.13,-10.82 -26.09,-10.82 0.15,-336.32 c 0.12,-302.04 0.9,-335.36 7.42,-326.72 4.03,5.27 56.64,94.92 116.92,199.22 z m 4872.3,129.72 c 0,315.94 -0.51,336.33 -8.4,338.83 -4.64,1.45 -16.09,5.86 -25.47,9.77 l -17.1,7.07 -126.92,-73.01 c -69.8,-40.16 -128.79,-74.69 -131.09,-76.72 -4.53,-4.02 300.11,-542.07 306.95,-542.07 1.13,0 2.03,151.25 2.03,336.13 z m -2278.59,181.92 c 119.33,68.47 296.91,170.74 394.57,227.26 l 177.62,102.81 v 915.82 l -395.71,228.52 -395.7,228.48 -93.91,-54.18 c -51.64,-29.81 -229.96,-132.78 -396.29,-228.83 l -302.38,-174.61 v -914.81 l 215.98,-124.84 c 408.2,-235.94 571.21,-329.37 575.04,-329.73 2.11,-0.19 101.44,55.67 220.78,124.11 z m -260.63,644.96 c -46.79,13.2 -88.94,55.47 -101.44,101.72 -2.85,10.58 -4.26,34.53 -3.05,53.2 3.48,54.73 31.17,96.41 81.84,123.08 16.6,8.75 28.08,10.67 63.47,10.67 37.31,0 46.49,-1.76 67.5,-12.7 29.11,-15.15 57.23,-45.04 70.36,-74.72 7.96,-17.93 9.29,-29.3 7.69,-65.63 -1.6,-36.83 -3.98,-47.46 -14.77,-65.82 -15.46,-26.44 -41.79,-50.35 -68.28,-62.07 -26.4,-11.68 -76.21,-15.39 -103.32,-7.73 z M 3524.84,3521.84 c 66.92,38.63 122.39,70.82 123.25,71.56 2.42,2.07 -328.48,572.26 -338.13,582.62 -1.01,1.09 -1.83,-150.67 -1.83,-337.23 0,-323.67 0.39,-339.18 8.63,-339.18 13.01,0 55.39,-22.42 68.16,-36.02 6.21,-6.6 12.85,-11.99 14.77,-11.99 1.91,0 58.24,31.6 125.15,70.24 z m 3023.01,-58.6 c 14.06,13.36 57.93,36.37 69.38,36.37 6.99,0 7.69,31.05 7.69,339.61 v 339.57 l -24.61,-40.78 c -52.22,-86.6 -308.04,-530.2 -309.88,-537.31 -1.05,-4.14 3.05,-10.62 9.1,-14.41 22.77,-14.3 231.88,-134.65 233.95,-134.69 1.17,0 7.65,5.24 14.37,11.64 z m -3315.39,30.28 27.58,8.47 0.04,334.81 c 0,184.14 -1.02,334.8 -2.31,334.8 -3.51,0 -19.68,-26.52 -100.31,-164.65 -143.87,-246.25 -210.04,-364.22 -207.73,-370.19 2.07,-5.47 46.91,-32.81 200,-122.03 27.69,-16.14 51.48,-29.42 52.77,-29.53 1.33,-0.08 14.8,3.63 29.96,8.32 z m 3555.78,23.39 c 56.02,32.27 184.06,108.25 196.06,116.33 5.19,3.52 -17.97,46.88 -108.44,203.01 -158.83,274.06 -195.16,335.16 -199.38,335.27 -1.99,0.04 -3.08,-150.31 -2.42,-334.1 l 1.25,-334.14 21.6,-8.55 c 11.88,-4.69 24.89,-8.75 28.91,-9.03 4.06,-0.27 32.11,13.75 62.42,31.21 z m -3884.1,249.46 c 98.99,168.79 260.98,453.83 259.02,455.78 -1.79,1.8 -183,-101.1 -489.14,-277.74 l -89.25,-51.52 2.22,-25.04 c 1.25,-13.79 4.26,-27.19 6.68,-29.8 8.01,-8.6 255.94,-150.47 260.86,-149.26 2.62,0.62 24.96,35.55 49.61,77.58 z m 4307.85,-4.53 c 71.8,41.25 130.78,75.27 131.06,75.58 0.31,0.31 1.75,12.93 3.24,28.01 l 2.69,27.42 -96.83,56.21 c -221.06,128.36 -480.04,275.35 -481.88,273.52 -3.36,-3.36 303.68,-535.78 308.95,-535.78 1.25,0 61.01,33.75 132.77,75.04 z m -4454.92,288.78 c 293.67,169.18 378.13,218.99 378.2,222.97 0,2 -138.94,3.6 -308.82,3.6 h -308.87 l -3.13,-46.8 c -1.68,-25.74 -3.12,-93.24 -3.16,-150 l -0.04,-103.2 22.81,-20.2 c 12.58,-11.13 23.28,-20.31 23.79,-20.39 0.51,-0.12 90.16,51.21 199.22,114.02 z M 7417.85,3970 c 2.19,0 3.44,68.59 2.74,152.38 l -1.29,152.42 -310.78,1.22 c -170.94,0.7 -310.79,-0.4 -310.75,-2.39 0.08,-1.99 13.52,-11.36 30,-20.82 16.45,-9.45 97.97,-56.76 181.14,-105.15 83.16,-48.36 199.49,-115.67 258.51,-149.54 l 107.35,-61.56 19.53,16.72 c 10.74,9.18 21.33,16.72 23.55,16.72 z m -4282.54,406.99 c 0,4.49 -33.32,24.26 -339.45,201.25 l -236.25,136.6 -24.14,-20.39 -24.14,-20.35 v -135.47 c 0,-74.49 1.33,-142.18 2.97,-150.43 l 3,-15 h 309.03 c 169.92,0 308.98,1.68 308.98,3.79 z m 4285.24,149.81 1.25,151.21 -24.3,18.01 -24.26,17.96 -202.58,-116.99 c -303.39,-175.23 -372.81,-216.21 -372.89,-220.23 -0.07,-1.99 139.81,-3.09 310.75,-2.39 l 310.78,1.22 z m -4253.17,-97.19 c -1.17,1.95 -54.45,94.3 -118.43,205.19 -134.11,232.5 -191.41,328.79 -195.59,328.79 -1.6,0 -60.04,-32.93 -129.81,-73.2 -78.43,-45.27 -128.24,-76.84 -130.46,-82.77 -2,-5.32 -4.73,-18.48 -6.14,-29.3 l -2.54,-19.65 77.47,-44.88 c 221.95,-128.63 500.31,-287.62 503.71,-287.7 2.14,-0.04 2.93,1.53 1.79,3.52 z m 3884.92,157.38 c 153.44,88.56 282.97,163.48 287.86,166.53 7.42,4.64 8.43,9.57 6.17,29.84 -1.53,13.32 -4.77,26.8 -7.23,29.92 -2.42,3.13 -61.76,38.56 -131.8,78.71 -101.4,58.09 -128.28,71.64 -131.87,66.29 -24.53,-36.52 -298.16,-507.81 -304.65,-524.76 -1.6,-4.15 -1.68,-7.5 -0.15,-7.5 1.48,0 128.24,72.42 281.67,160.97 z m -427.38,224.3 v 337.26 l -23.79,8.44 c -13.08,4.65 -33.63,15.98 -45.66,25.12 -11.99,9.18 -22.77,16.68 -23.91,16.68 -2.03,0 -63.63,-35.39 -181.44,-104.34 -33.67,-19.68 -61.21,-37.81 -61.21,-40.31 0,-3.2 225.7,-397.93 329.68,-576.52 1.14,-2 3.05,-3.64 4.22,-3.64 1.14,0 2.11,151.8 2.11,337.31 z m -3364.8,2.42 v 334.88 l -27.62,9.57 -27.58,9.57 -103.2,-59.33 c -143.75,-82.66 -153.59,-88.75 -153.59,-94.81 0,-2.93 52.46,-96.95 116.6,-208.86 160.43,-280 187.42,-325.94 191.68,-325.94 2.03,0 3.71,150.7 3.71,334.92 z m 155.04,-162.11 c 51.4,88.44 124.92,214.81 163.32,280.78 l 69.88,120 -12.07,9.61 c -11.56,9.22 -218.32,130.39 -231.25,135.55 -3.48,1.37 -12.11,-3.05 -19.22,-9.81 -12.93,-12.38 -60.47,-36.79 -71.72,-36.87 -4.72,-0.04 -5.97,-70.7 -5.97,-337.07 0,-290.35 0.93,-336.06 6.75,-330 3.75,3.83 48.87,79.37 100.28,167.81 z m 3324.8,-70.74 c 64.96,110.66 232.15,401.09 243.09,422.19 l 6.75,13 -68.43,40.36 c -37.66,22.18 -96.37,56.52 -130.47,76.25 l -61.99,35.93 -53.6,-20.78 -1.25,-334.49 c -0.66,-183.98 0.43,-334.49 2.42,-334.45 2,0 30.55,45.9 63.48,101.99 z m -4065.43,448.2 c 51.45,29.92 96.6,56.37 100.27,58.79 5.43,3.52 2.93,11.29 -13.08,41.02 -23.52,43.55 -277.7,485.74 -287.11,499.41 -5.51,8.01 -6.48,-42.66 -6.48,-329.41 V 4960 l 25.19,-9.45 25.2,-9.5 31.21,16.8 c 17.15,9.26 73.32,41.29 124.8,71.21 z m 4767.93,-77.03 22.46,7.66 v 338.75 c 0,186.33 -0.78,337.85 -1.76,336.76 -1.44,-1.65 -177.89,-307.5 -284.92,-493.87 l -26.13,-45.47 10.16,-8.24 c 9.96,-8.05 190.43,-113.05 228.24,-132.78 23.47,-12.26 24.1,-12.26 51.95,-2.81 z m -3721.72,228.79 c 62.31,106.91 248.67,430.51 271.21,470.94 17.11,30.66 17.62,32.54 6.88,26.87 -53.95,-28.55 -501.06,-286.79 -543.4,-313.86 l -25.55,-16.33 0.51,-51.37 c 0.51,-48.71 1.13,-51.76 12.31,-59.84 14.45,-10.43 226.87,-134.42 230.23,-134.38 1.29,0 22.81,35.12 47.81,77.97 z m 2685.78,5.16 c 68.87,40.27 100.2,61.17 98.87,65.89 -1.01,3.79 -2.11,27.43 -2.38,52.43 l -0.51,45.5 -49.06,30 c -94.06,57.47 -524.89,305.04 -527.03,302.86 -2.23,-2.19 141.25,-252.23 266.99,-465.32 l 67.65,-114.64 22.31,12.18 c 12.3,6.68 67.69,38.67 123.16,71.1 z m -2804.64,323.86 c 109.02,62.82 238.98,137.89 288.78,166.8 l 90.55,52.58 -44.96,3.05 c -24.73,1.68 -165.35,3.32 -312.54,3.59 l -267.62,0.55 v -304.54 l 20.43,-17.92 c 11.21,-9.89 21.92,-18.05 23.75,-18.13 1.84,-0.12 92.54,51.17 201.61,114.02 z m 2953.82,-96.87 21.21,17.38 v 306.06 l -229.21,-0.59 c -126.06,-0.31 -266.57,-1.95 -312.27,-3.59 l -83.09,-3.01 123.87,-71.76 c 199.92,-115.74 454.65,-261.87 456.52,-261.87 0.98,0 11.29,7.85 22.97,17.38 z m -3343.79,571.83 -0.19,152.39 -21.21,15.62 c -11.64,8.56 -23.17,15.59 -25.55,15.59 -3.91,0 -575.7,-328.44 -580.98,-333.75 -1.25,-1.25 139.57,-2.27 312.93,-2.27 h 315.2 z m 759.14,-143.75 c -6.32,4.5 -136.83,80.71 -290.03,169.34 l -278.56,161.21 -23.16,-17.19 -23.17,-17.22 V 5984.8 l -0.04,-152.42 313.21,0.28 c 295.93,0.23 312.58,0.7 301.75,8.39 z m 973.87,134.97 v 143.59 l -24.26,8.09 c -13.32,4.41 -34.1,15.58 -46.17,24.76 -12.07,9.22 -25.47,15.82 -29.76,14.69 -10.75,-2.89 -558.09,-319.57 -566.84,-328.01 -6.05,-5.78 40.2,-6.76 330,-6.76 h 337.03 z m 713.01,-139.18 c -3.2,5.15 -108.75,67.3 -377.7,222.42 l -194.14,111.95 -29.84,-20.43 c -16.41,-11.25 -38.48,-22.77 -48.98,-25.58 l -19.14,-5.16 v -287.66 h 336.28 c 203.87,0 335.2,1.76 333.52,4.46 z m 918.91,138.36 -0.08,142.81 -26.49,23.24 c -14.8,13.01 -29.45,22.11 -33.16,20.7 -7.38,-2.85 -292.81,-167.46 -452.58,-261.05 -56.09,-32.81 -103.2,-61.68 -104.69,-64.1 -1.64,-2.66 120.55,-4.42 307.19,-4.42 h 309.88 z m 767.89,-139.18 c -0.12,1.95 -128.09,77.3 -284.42,167.46 l -284.22,163.86 -14.37,-15.47 c -7.93,-8.47 -20.35,-19.29 -27.62,-24.02 l -13.2,-8.55 v -286.92 h 312.03 c 171.6,0 311.91,1.64 311.8,3.64 z M 4445.7,5996.99 c 233.21,134.34 360.55,209.34 370.86,218.4 8.17,7.15 8.32,21.25 0.51,49.84 -2.73,10.04 -260.78,159.65 -266.13,154.3 -2.11,-2.15 -67.89,-115.16 -146.14,-251.13 -78.24,-135.98 -147.65,-256.53 -154.25,-267.93 l -12.03,-20.74 16.01,8.16 c 8.79,4.49 94.81,53.59 191.17,109.1 z m -466.4,-60.19 c -55.16,97.42 -192.66,334.84 -237.85,410.66 l -45.2,75.86 -20.08,-11.6 c -11.01,-6.37 -69.72,-40.24 -130.47,-75.24 -60.7,-35 -110.7,-63.94 -111.13,-64.25 -0.39,-0.36 -2.23,-12.58 -4.02,-27.23 l -3.28,-26.56 85.62,-51.14 c 110.82,-66.21 487.42,-282.1 492.03,-282.1 1.99,0 -9.57,23.24 -25.62,51.6 z m 1646.91,62.15 c -67.19,119.25 -221.64,385.03 -237.19,408.12 l -10.39,15.43 -128.16,-73.52 c -70.47,-40.46 -129.26,-74.68 -130.63,-76.05 -1.4,-1.37 -4.29,-13.71 -6.44,-27.34 l -3.95,-24.85 19.73,-13.47 c 20.04,-13.64 221.52,-131.37 434.92,-254.11 64.69,-37.18 118.32,-65.58 119.18,-63.04 0.9,2.54 -24.8,51.52 -57.07,108.83 z m 595.51,51.83 c 154.41,89.06 281.17,162.27 281.64,162.62 0.47,0.39 -0.35,13.87 -1.8,29.96 l -2.65,29.26 -125.39,72.42 c -68.99,39.84 -128.64,73.59 -132.62,75 -5.35,1.91 -37.31,-49.77 -124.81,-201.84 -176.09,-306.17 -194.8,-340.82 -178.79,-331.48 2,1.17 129.97,75 284.42,164.06 z m -2121.68,219.61 -0.08,337.23 -27.11,8.59 -27.15,8.63 -77.18,-44.25 c -129.89,-74.46 -180.39,-105.16 -180.39,-109.57 0,-6.76 306.17,-537.82 310.07,-537.82 1.06,0 1.88,151.72 1.84,337.19 z m 120.23,-224.37 c 114.53,196.4 245.39,425.62 243.83,426.99 -3.55,3.04 -125.94,75.62 -190,112.61 l -68.4,39.5 -27.61,-9.53 -27.58,-9.54 -1.49,-256.01 c -1.48,-259.34 1.84,-416.21 8.71,-408.87 2.07,2.23 30.24,49.38 62.54,104.85 z m 1564.65,239.8 v 338.2 l -19.14,5.71 -19.1,5.74 -90.08,-51.92 c -120.39,-69.37 -185.39,-109.53 -185.04,-114.25 0.35,-4.14 287.62,-505.55 295.47,-515.71 2.58,-3.28 7.62,-5.97 11.25,-5.97 5.59,0 6.64,54.14 6.64,338.2 z m 71.02,-317.81 c 15.66,22.97 119.14,200.54 221.64,380.27 47.03,82.46 67.03,121.92 64.18,126.41 -2.27,3.63 -64.18,41.25 -137.54,83.63 l -133.44,77.03 -18.94,-5.66 -18.91,-5.67 v -338.2 c 0,-210.9 1.72,-338.2 4.57,-338.2 2.5,0 10.82,9.18 18.44,20.39 z m -275.04,738.98 76.8,44.96 v 60.82 l -285.43,164.77 c -157.04,90.58 -286.29,163.91 -287.31,162.93 -0.98,-1.02 24.65,-47.85 56.95,-104.14 78.44,-136.6 228.99,-395.47 242.93,-417.74 l 11.14,-17.81 54.06,30.63 c 29.73,16.83 88.63,50.82 130.86,75.58 z m -997.54,-30.97 c 79.88,134.92 269.37,464.37 267.93,465.89 -1.21,1.29 -447.38,-254.29 -547.19,-313.43 l -33.59,-19.93 1.56,-26.09 c 0.86,-14.34 4.1,-28.51 7.19,-31.52 9.26,-8.99 249.61,-145.74 256.17,-145.74 3.28,0 24.84,31.87 47.93,70.82 z M 1688.71,1475.2 c 9.92,19.14 171.6,299.92 466.49,810 122.89,212.53 236.25,408.71 251.99,436.01 23.44,40.66 29.69,48.44 34.69,43.2 8.67,-9.1 742.42,-1279.29 748.86,-1296.4 3.05,-7.97 -34.8,-8.4 -753.44,-8.4 h -756.64 z m 5046.6,-12.9 c 0,1.49 29.49,53.87 65.55,116.41 352.38,611.02 658.59,1141.21 672.3,1163.99 15.24,25.31 17.39,27.1 22.86,19.21 16.91,-24.41 744.1,-1280.89 749.61,-1295.27 2.38,-6.17 -91.33,-7.03 -753.79,-7.03 -416.1,0 -756.53,1.21 -756.53,2.69 z M 846.328,2924.8 c 22.774,42.58 747.462,1295.24 752.542,1300.79 3.63,3.94 25.66,-33.72 453.08,-773.99 160.78,-278.51 296.64,-513.44 301.84,-521.99 l 9.49,-15.63 H 840.59 Z m 6730.702,-3.67 c 2.62,6.84 276.25,481.72 600.9,1042.78 134.57,232.57 154.14,264.06 159.61,256.79 10.9,-14.53 754.57,-1300.23 754.57,-1304.53 0,-1.21 -341.52,-2.19 -758.91,-2.19 -669.29,0 -758.59,0.86 -756.17,7.15 z m -6828.55,63.13 c -25.75,40.9 -250.75,428.44 -555.55,956.95 -79.961,138.59 -155.8206,269.81 -168.5902,291.6 L 1.08984,4272.38 H 757.5 c 679.84,0 756.13,-0.74 753.59,-7.38 -5.78,-15.12 -739.762,-1287.81 -746.91,-1295.16 -2.231,-2.3 -9.258,4.14 -15.7,14.42 z m 8422.15,-11.99 c -7.5,9.45 -209.93,358 -479.11,824.92 -128.59,223.08 -243.28,421.79 -254.84,441.6 l -21.02,36.01 756.61,1.22 c 416.13,0.66 757.42,0.39 758.43,-0.63 1.02,-0.98 -75.78,-136.52 -170.62,-301.21 -284.92,-494.65 -569.1,-986.06 -576.92,-997.62 -6.01,-8.86 -8.32,-9.69 -12.53,-4.29 z M 11.7617,4393.59 c 6.4766,11.21 175.4683,304.46 375.5083,651.61 200.031,347.14 366.089,633.71 369.058,636.79 4.024,4.18 98.902,-156.56 375.002,-635.27 203.28,-352.46 373.4,-648.2 378.08,-657.19 l 8.52,-16.33 H 0 Z m 8412.1483,-4.8 c 5.15,8.59 43.43,75 85.07,147.62 177.97,310.23 656.57,1135.66 661.65,1141.01 6.17,6.56 -9.22,32.27 274.21,-457.03 284.93,-491.8 487.27,-842.69 487.27,-845.04 0,-1.17 -341.45,-2.15 -758.79,-2.15 H 8414.53 Z M 1457.7,4664.92 c -404.18,699.45 -612.348,1063.13 -609.93,1065.55 1.492,1.48 341.84,3.71 756.33,4.96 556.49,1.72 753.6,0.9 753.6,-3.09 0,-3.94 -749.38,-1307.77 -755.55,-1314.61 -0.55,-0.58 -65.55,110.63 -144.45,247.19 z m 6495.39,409.96 -377.89,654.34 379.25,3.01 c 208.6,1.68 549.69,1.68 757.97,0 l 378.71,-3.01 -317.5,-549.88 C 8444.84,4610 8348.44,4444.18 8337.42,4429.3 c -5.74,-7.78 -46.6,60.86 -384.33,645.58 z m -5564.34,885.9 c -291.84,503.05 -708.12,1226.56 -706.56,1228.09 1.05,1.09 342.38,1.4 758.44,0.74 l 756.48,-1.21 -300.9,-520.86 c -165.51,-286.49 -335.47,-580.74 -377.69,-653.87 -42.23,-73.12 -78.25,-133.05 -79.97,-133.12 -1.71,-0.08 -24.14,36.01 -49.8,80.23 z m 5096.84,-74.61 c -6.57,8.28 -745.12,1288.52 -748.6,1297.58 -2.38,6.17 90.67,7.03 754.34,7.03 653.16,0 756.64,-0.94 754.37,-6.83 -6.09,-15.94 -741.4,-1289.5 -749.29,-1297.78 -4.85,-5.12 -6.8,-5.12 -10.82,0 z M 1682.81,7294.41 c 2.58,6.76 471.72,820.55 675.51,1171.76 43.2,74.49 80,133.87 81.8,132.03 4.57,-4.72 733.51,-1265.04 752.22,-1300.58 l 5.71,-10.82 h -759.07 c -690.78,0 -758.82,0.7 -756.17,7.61 z m 1688.24,3.21 c 9.22,17.38 277.27,481.68 495.43,857.97 110.98,191.4 213.79,369.02 228.48,394.64 14.73,25.67 28.2,46.72 29.96,46.84 1.76,0.08 39.34,-61.95 83.52,-137.85 81.17,-139.53 528.63,-912.58 623.04,-1076.41 l 51.18,-88.83 -30.08,-3 c -16.53,-1.68 -357.93,-3.32 -758.63,-3.64 l -728.56,-0.54 z m 1679.46,-8.13 c 0,3.56 88.79,157.74 440.78,765.31 159.8,275.86 295.74,510.79 302.11,522 6.33,11.21 13.05,20.39 14.88,20.39 3.67,0 259.88,-440.59 695.31,-1195.78 l 62.62,-108.56 -28.94,-3.01 c -35.82,-3.75 -1486.76,-4.1 -1486.76,-0.35 z m 1684.8,-0.15 c 0,6.75 141.53,253.32 531.72,926.25 240.04,414.06 222.07,384.8 230,374.02 8.17,-11.06 70.55,-118.05 324.49,-556.41 340.59,-587.89 426.25,-737.93 423.21,-741.01 -3.75,-3.75 -1509.42,-6.57 -1509.42,-2.85 z m -3496.33,123.47 c -116.05,200.08 -536.21,928.17 -618.43,1071.6 l -93.52,163.21 756.13,1.21 c 415.86,0.66 756.84,0.47 757.74,-0.43 0.9,-0.86 -140.55,-247.66 -314.3,-548.4 -419.45,-726.02 -439.45,-760.39 -442.54,-760.39 -1.44,0 -21.76,32.93 -45.08,73.2 z m 3321.14,76.8 c -47.54,82.34 -217.39,376.56 -377.5,653.87 l -291.06,504.14 756.25,1.21 c 415.94,0.66 757.15,0.31 758.24,-0.78 1.1,-1.1 -118.82,-211.18 -266.48,-466.8 -428.87,-742.5 -486.6,-841.64 -489.92,-841.52 -1.72,0.07 -42.03,67.54 -89.53,149.88 z"
         style="fill:#000000;fill-opacity:1;fill-rule:nonzero;stroke:none"
         id="path12" />
    </g>
  </g>
</svg>
