<?xml version="1.0" encoding="UTF-8" standalone="no"?>
<!-- Created with Inkscape (http://www.inkscape.org/) -->

<svg
   version="1.1"
   id="svg2"
   width="1998.6667"
   height="2000"
   viewBox="0 0 1998.6667 2000"
   sodipodi:docname="NUWA-INKSCAPE-EPS.eps"
   xmlns:inkscape="http://www.inkscape.org/namespaces/inkscape"
   xmlns:sodipodi="http://sodipodi.sourceforge.net/DTD/sodipodi-0.dtd"
   xmlns="http://www.w3.org/2000/svg"
   xmlns:svg="http://www.w3.org/2000/svg">
  <defs
     id="defs6" />
  <sodipodi:namedview
     id="namedview4"
     pagecolor="#ffffff"
     bordercolor="#000000"
     borderopacity="0.25"
     inkscape:showpageshadow="2"
     inkscape:pageopacity="0.0"
     inkscape:pagecheckerboard="0"
     inkscape:deskcolor="#d1d1d1" />
  <g
     id="g8"
     inkscape:groupmode="layer"
     inkscape:label="ink_ext_XXXXXX"
     transform="matrix(1.3333333,0,0,-1.3333333,0,2000)">
    <g
       id="g10"
       transform="scale(0.1)">
      <path
         d="m 6991.84,855.621 -492.58,853.129 494.57,1.91 c 271.99,1.1 717.11,1.1 989.1,0 l 494.57,-1.91 -492.54,-853.129 C 7714.02,386.41 7490.59,2.5 7488.4,2.5 c -2.19,0 -225.67,383.91 -496.56,853.121 z M 7105.9,18.2422 C 4887.19,132.422 2853.59,1211.02 1507.62,2987.5 c -143.83,189.84 -310.08,433.36 -416.02,609.37 l -16.95,28.13 111.25,-0.2 111.25,-0.23 70.82,-109.73 C 1784.61,2869.37 2369.41,2235.66 3001.13,1745.2 4052.03,929.262 5296.8,414.34 6614.65,250.391 c 155,-19.301 360.55,-37.27 502.19,-43.871 l 112.18,-5.27 30.75,-52.5 c 16.91,-28.867 41.75,-71.9102 55.23,-95.6289 L 7339.49,10 l -58.67,1.1328 c -32.27,0.6289 -110.98,3.7891 -174.92,7.1094 z m 547.03,19.8789 c 8.16,15.4687 32.81,58.5195 54.73,95.6289 l 39.88,67.5 112.3,5.23 c 336.14,15.75 772.54,72.7 1112.27,145.2 1252.19,267.269 2379.69,832.97 3352.39,1682.11 161.9,141.33 515.8,495.16 655.3,655.12 242.3,277.96 483.1,595.89 651,859.64 l 48.7,76.45 h 111.2 c 86.8,0 109.9,-2.07 105.6,-9.38 -73.9,-127.38 -286.4,-441.83 -406.7,-601.87 C 12198.4,1295.98 10250.7,214.02 8129.65,36.3711 7997.7,25.3125 7733.91,10.1992 7670.12,10.082 L 7638.09,10 Z M 4314.88,1879.37 c 344.81,600.67 968.13,1674.38 972.03,1674.38 3.79,0 922.27,-1582.07 987.31,-1700.63 6.83,-12.46 -42.42,-13.12 -987.38,-13.12 H 4292.3 Z m 2183.52,-35.03 c 0,7.11 985.94,1713.08 990,1712.96 3.55,-0.11 983.51,-1694.96 988.75,-1710.07 1.6,-4.61 -355.86,-7.23 -988.13,-7.23 -544.84,0 -990.62,1.95 -990.62,4.34 z m 2208.16,16.28 c 67.54,126.06 977.54,1689.77 983.09,1689.34 5.27,-0.43 884.95,-1512.77 986.95,-1696.84 7,-12.46 -42.3,-13.12 -986.87,-13.12 H 8695.51 Z M 3685.9,2759.34 c -270.2,468.32 -492.38,854.68 -493.75,858.59 -1.56,4.41 370.98,7.07 988.75,7.07 597.85,0 990.23,-2.73 988.75,-6.88 -5.74,-15.82 -985.31,-1710.19 -988.75,-1710.23 -2.07,0 -224.81,383.13 -495,851.45 z M 6381.37,1915.9 c -3.67,5.7 -226.88,391.72 -496.1,857.85 l -489.41,847.5 499.34,1.91 c 274.64,1.1 721.05,1.1 991.99,0 l 492.58,-1.91 -489.73,-847.5 c -269.34,-466.13 -492.5,-852.15 -495.9,-857.85 -5.23,-8.79 -7.19,-8.79 -12.77,0 z m 1710.35,848.47 -494.69,856.88 497.5,1.91 c 273.63,1.1 720,1.1 991.92,0 l 494.37,-1.91 -491.09,-850.74 c -270.12,-467.93 -493.87,-853.52 -497.23,-856.88 -3.36,-3.4 -228.71,379.46 -500.78,850.74 z m 2686.88,-840.74 c -6.2,9.69 -229.3,395.63 -495.8,857.62 l -484.67,840 987.57,1.91 c 543.2,1.02 989.2,0.36 991.1,-1.56 2.8,-2.85 -947.6,-1656.99 -977.7,-1701.72 -9,-13.2 -9.9,-13.04 -20.5,3.75 z m -5491.45,1763.6 -30,16.99 -3.75,531.52 -3.75,531.49 -30,10.39 c -16.52,5.7 -42.77,20.62 -58.36,33.16 l -28.36,22.77 -185.39,-106.68 c -101.95,-58.67 -187.66,-107.89 -190.39,-109.33 -9.14,-4.84 -39.1,51.09 -30.16,56.37 4.53,2.65 90.24,51.99 190.43,109.64 l 182.23,104.81 -2.11,142.89 -429.96,248.48 c -288.75,166.87 -437.11,256.79 -451.64,273.75 -11.92,13.9 -29.69,42.14 -39.53,62.77 l -17.86,37.5 -0.07,508.36 c -0.08,477.5 -0.9,508.63 -13.21,512.58 -40.5,13.01 -59.88,23.08 -82.42,42.89 -20.9,18.36 -27.85,20.74 -41.64,14.29 -9.14,-4.25 -95.82,-53.63 -192.69,-109.68 l -176.14,-101.96 -16.75,27.74 -16.72,27.73 59.02,34.03 c 32.5,18.71 117.58,67.65 189.14,108.75 l 130.08,74.68 v 144.73 l -907.5,523.83 -2.23,38.2 -2.26,38.2 456.01,263.13 455.98,263.16 -0.7,72.58 -0.75,72.58 -188.67,108.83 -188.71,108.83 14.65,23.12 c 8.05,12.74 17.46,24.06 20.9,25.24 3.4,1.13 90.47,-46.68 193.47,-106.25 l 187.31,-108.29 18.75,17.82 c 10.31,9.76 38.16,26.64 61.87,37.5 l 43.13,19.72 v 1012.35 l 18.44,38.98 c 10.15,21.45 29.53,50.82 43.12,65.31 15.63,16.64 181.76,116.84 452.19,272.7 l 427.5,246.41 -1.02,71.56 -0.97,71.5 -185.51,107.2 c -102.03,58.9 -186.92,108.6 -188.67,110.3 -1.76,1.8 3.86,15.2 12.5,29.8 l 15.7,26.7 187.7,-108.2 c 103.24,-59.5 189.21,-108.2 191.05,-108.2 1.84,0 20.12,11.5 40.62,25.7 20.47,14.1 47.43,27.8 59.81,30.6 l 22.54,4.9 v 1062.5 l 65.15,36.4 458.56,-264.7 458.59,-264.7 24.46,22.4 c 13.47,12.4 40.5,28.2 60.11,35.2 l 35.63,12.7 v 439 h 60 v -439 l 37.65,-13.3 c 20.71,-7.4 48.68,-23.1 62.19,-35 l 24.57,-21.5 432.58,249.7 c 237.93,137.3 443.24,251.8 456.25,254.4 30.2,6 88.16,6 118.2,0.1 12.82,-2.6 214.85,-115.3 448.95,-250.4 l 425.62,-245.7 34.54,31 c 19.02,17 49.45,36.3 67.61,42.9 l 33.09,12 3.98,414.8 h 59.77 V 10896 l 36.6,-13 c 20.35,-7.2 49.8,-26.2 66.33,-42.7 l 29.69,-29.7 452.18,261.1 452.19,261.1 32.74,-18.3 32.77,-18.3 v -1085 l 22.07,-4.8 c 12.11,-2.7 35.23,-14.5 51.37,-26.1 l 29.33,-21.3 190.43,110.1 c 104.8,60.5 194.6,112.6 199.6,115.7 6,3.8 14.2,-4.3 24,-23.4 l 14.8,-29.1 -194.7,-111.8 c -171,-98.1 -194.13,-113.6 -189.79,-126.7 2.73,-8.3 7.03,-40.2 9.57,-70.8 l 4.57,-55.85 430.15,-248.36 c 459.3,-265.12 454.1,-261.49 489,-340.35 14,-31.45 14.6,-54.26 14.6,-537.58 v -504.77 l 43.1,-19.72 c 23.7,-10.82 51.6,-27.66 61.9,-37.39 l 18.7,-17.65 187.2,108.32 c 102.9,59.57 190.7,106.87 195,105.15 4.3,-1.71 13.7,-13.16 20.8,-25.46 l 13,-22.31 -189,-108.67 -188.8,-108.67 v -145.82 l 906.8,-523.44 v -78.36 l -453.7,-261.91 -453.8,-261.88 v -145.16 l 182.6,-104.68 c 100.5,-57.58 184.3,-108.87 186.4,-113.99 2.1,-5.11 -2.5,-19.41 -10.4,-31.79 l -14.2,-22.46 -183.1,105.74 c -100.8,58.16 -187.5,107.42 -192.8,109.45 -5.3,2.03 -20.8,-6.09 -34.5,-18.09 -22.3,-19.57 -41.7,-29.6 -82.1,-42.61 -12.3,-3.95 -13.1,-34.92 -13.1,-510.47 v -506.29 l -17.9,-39.57 c -9.9,-21.8 -27.6,-50.82 -39.4,-64.57 -14.2,-16.49 -167.1,-109.18 -451.7,-273.75 l -430.22,-248.79 -2.03,-142.97 187.55,-107.93 c 103.1,-59.33 188.7,-108.83 190.2,-110 1.5,-1.13 -4.7,-14.02 -13.7,-28.67 -14.7,-23.67 -18.2,-25.66 -32.8,-18.01 -8.9,4.69 -94.6,53.83 -190.5,109.14 l -174.23,100.63 -28.28,-22.7 c -15.55,-12.5 -41.76,-27.38 -58.24,-33.12 l -30,-10.39 -1.92,-529.57 -1.95,-529.57 -65.55,-38.44 -456.25,263.51 c -367.07,212.04 -458.47,261.92 -467.77,255.24 -33.24,-23.87 -88.16,-53.28 -99.69,-53.32 C 8621.8,4135 8620.9,4119.26 8620.9,3910 v -225 h -59.77 l -1.99,221.99 -1.99,222.03 -36.8,13.95 c -20.23,7.69 -46.21,22.97 -57.69,33.98 -14.03,13.44 -25.2,18.32 -34.11,14.92 -7.26,-2.81 -206.36,-116.52 -442.38,-252.77 l -429.18,-247.65 h -67.54 c -39.06,0 -74.88,3.86 -84.92,9.21 -9.57,5.08 -201.33,115.47 -426.13,245.32 -224.81,129.8 -416.41,239.53 -425.78,243.82 -14.22,6.45 -20.51,4.42 -38.21,-12.57 -11.64,-11.14 -37.73,-26.57 -57.96,-34.26 l -36.8,-13.95 -1.99,-222.03 -2,-221.99 h -59.76 v 225 c 0,197.19 -1.45,225 -11.52,225 -15.86,0 -81.02,33.75 -93.01,48.16 -5.39,6.53 -12.85,11.84 -16.6,11.84 -3.72,0 -211.25,-118.13 -461.22,-262.5 -249.92,-144.38 -454.84,-262.42 -455.39,-262.38 -0.58,0.08 -14.53,7.77 -31.01,17.11 z m 537.26,349.33 379.77,218.91 -17.03,76.17 -167.54,96.68 c -92.15,53.16 -169.77,96.6 -172.5,96.52 -2.73,-0.07 -85.98,-140.66 -184.96,-312.42 -229.65,-398.4 -232.15,-402.81 -224.18,-398.44 3.67,2.04 177.58,102.19 386.44,222.58 z m 1315.04,129.69 c -110.11,191.13 -202.97,350.47 -206.36,354.1 -3.4,3.67 -82.43,-37.26 -178.25,-92.34 l -172.11,-98.91 -4.06,-35.19 c -2.26,-19.34 -1.37,-37.97 1.96,-41.41 9.25,-9.61 753.67,-438.59 756.52,-435.98 1.4,1.25 -87.58,158.64 -197.7,349.73 z m 888.95,-128.87 c 195.94,112.66 360.19,208.56 365.04,213.13 5.58,5.19 7.34,21.05 4.76,42.97 l -4.06,34.72 -172.11,99.42 c -97.3,56.25 -174.8,96.56 -178.32,92.77 -8.2,-8.71 -397.26,-682.69 -403.51,-699.02 -4.46,-11.6 -3.44,-11.68 13.55,-0.67 10.12,6.53 178.71,104.07 374.65,216.72 z m 1491.05,-181.33 c -213.28,374.46 -386.52,668.4 -393.12,667 -4.61,-0.98 -81.72,-43.99 -171.45,-95.55 -102.07,-58.67 -165.35,-99.53 -169.1,-109.26 -3.28,-8.51 -7.11,-26.44 -8.51,-39.88 l -2.58,-24.38 382.26,-220.74 c 210.24,-121.4 383.4,-220.74 384.77,-220.74 1.41,0 -8.63,19.61 -22.27,43.55 z m -3985.47,387.58 c 154.22,267.15 197.04,346.76 189.89,353.28 -5.08,4.65 -81.33,49.89 -169.49,100.55 l -160.28,92.11 -69.45,-21.56 -1.68,-445.86 c -1.02,-268.17 1.01,-441.41 5.08,-434.65 3.75,6.17 96.4,166.45 205.93,356.13 z m 1924.42,79.1 c 0,415.12 -0.82,443.01 -13.13,446.8 -7.22,2.23 -23.32,8.44 -35.74,13.79 -21.91,9.45 -27.58,6.88 -192.62,-88.67 -93.51,-54.1 -170.62,-101.13 -171.28,-104.45 -0.71,-3.36 72.1,-133.29 161.79,-288.75 213.48,-370.04 243.71,-421.45 247.66,-421.45 1.83,0 3.32,199.22 3.32,442.73 z m 270.47,-90.58 c 108.2,187.5 198.01,346.09 199.53,352.5 2.03,8.32 -45.2,39.26 -167.97,109.92 -165.27,95.12 -171.52,97.97 -193.28,88.67 -12.38,-5.31 -28.4,-11.48 -35.63,-13.71 -12.3,-3.79 -13.12,-31.76 -13.12,-448.28 0,-268.95 2.69,-441.45 6.87,-437.11 3.75,3.91 95.39,160.51 203.6,348.01 z m 1924.29,529.1 c -1.6,4.14 -18.36,12.07 -37.26,17.62 l -34.42,10.11 -165.31,-95.23 c -90.94,-52.38 -166.87,-97.77 -168.79,-100.86 -1.91,-3.09 88.36,-164.84 200.63,-359.41 l 204.14,-353.79 1.95,437.03 c 1.06,240.35 0.63,440.39 -0.94,444.53 z m -3329.41,-253.98 32.15,12.26 v 442.97 c 0,258.95 -2.77,440.04 -6.68,435.86 -3.67,-3.91 -96.8,-163.56 -206.99,-354.77 -131.14,-227.57 -197.78,-350.15 -192.93,-355 10.9,-10.89 326.6,-193.04 335.08,-193.36 3.98,-0.11 21.71,5.28 39.37,12.04 z m 342.46,86.01 170.04,98.24 -22.42,38.64 c -12.35,21.21 -104.42,181.05 -204.57,355.19 -100.16,174.1 -184.65,316.72 -187.74,316.88 -3.08,0.15 -5.62,-198.52 -5.62,-441.53 v -441.79 l 31.87,-11.02 c 17.54,-6.05 35.59,-11.41 40.12,-11.95 4.53,-0.51 84.77,43.28 178.32,97.34 z m 1857.66,-86.17 37.03,12.11 v 441.64 c 0,242.89 -2.54,441.56 -5.63,441.44 -5.58,-0.15 -408.51,-695.39 -409.92,-707.18 -0.66,-5.86 322.54,-198.09 335.39,-199.46 3.32,-0.35 22.74,4.81 43.13,11.45 z m 332.34,79.1 c 87.15,50.16 162.97,95.31 168.52,100.31 8.24,7.5 -25.94,71.64 -190.39,356.96 -110.24,191.25 -203.36,350.97 -206.96,354.88 -3.67,4.06 -6.48,-185.39 -6.48,-435.86 v -442.97 l 28.12,-11.52 c 15.47,-6.37 32.78,-11.88 38.44,-12.27 5.7,-0.43 81.64,40.31 168.75,90.47 z m -2821.64,524.18 c 110.66,191.6 201.25,351.09 201.29,354.41 0,3.32 -9.26,0.59 -20.59,-6.13 -11.36,-6.68 -182.61,-105.74 -380.62,-220.19 l -360,-208.01 2.54,-33.36 c 1.4,-18.36 5.7,-36.72 9.57,-40.86 12.03,-12.85 332.5,-197.58 339.72,-195.82 3.75,0.9 97.39,158.4 208.09,349.96 z m 1086.56,-254.45 170.59,98.47 4.96,37.43 c 2.73,20.58 3.95,38.24 2.7,39.29 -10.55,8.79 -759.54,437.85 -761.25,436.1 -2.82,-2.82 404.92,-709.73 409.33,-709.73 1.68,0 79.84,44.3 173.67,98.44 z m 1087.27,206.64 c 249.69,432.15 238.2,410.97 216.64,399.61 -21.64,-11.37 -744.34,-428.13 -747.93,-431.29 -1.41,-1.21 0.27,-19.34 3.75,-40.28 l 6.29,-38.04 168.75,-97.35 c 92.81,-53.55 170.43,-97.46 172.5,-97.53 2.07,-0.08 83.05,137.1 180,304.88 z m 1107.69,-210.55 c 89.96,51.95 167.46,98.36 172.27,103.13 4.8,4.72 9.88,23.55 11.25,41.83 l 2.54,33.24 -345,199.3 c -189.77,109.65 -361.56,209.02 -381.84,220.9 -31.36,18.4 -36.01,19.49 -31.4,7.46 4.76,-12.42 364.29,-639.77 391.75,-683.52 5.82,-9.29 12,-16.87 13.72,-16.87 1.75,0 76.75,42.54 166.71,94.53 z M 5165.16,5110 l 28.04,18.75 0.08,200.62 0.12,200.63 -414.38,-0.23 c -242.3,-0.12 -409.72,-2.97 -403.12,-6.84 199.84,-117.27 754.76,-434.88 757.5,-433.56 2.03,1.06 16.37,10.32 31.76,20.63 z m 664.8,199.92 c 204.69,118.05 373.59,215.86 375.31,217.38 1.72,1.49 -183.08,2.7 -410.62,2.7 H 5380.9 l 0.55,-401.25 27.85,-20.04 c 15.31,-11.05 32.5,-18.59 38.16,-16.76 5.7,1.84 177.81,99.92 382.5,217.97 z M 7360,5105.31 c 14.92,15.9 47.62,33.17 85.27,45.08 12.03,3.79 13.13,19.65 13.13,191.88 V 5530 h -443.75 c -244.06,0 -441.84,-1.95 -439.45,-4.3 9.33,-9.33 752.46,-437.38 760,-437.77 4.45,-0.23 15.58,7.58 24.8,17.38 z m 661.64,199.38 c 206.88,119.45 377.97,219.02 380.2,221.25 2.22,2.22 -195.63,4.06 -439.69,4.06 H 7518.4 v -187.73 c 0,-172.23 1.09,-188.09 13.12,-191.88 37.66,-11.91 70.32,-29.18 85.28,-45.08 9.18,-9.8 19.41,-17.81 22.73,-17.81 3.28,0 175.24,97.73 382.11,217.19 z M 9554.45,5102.3 c 7.39,8.17 19.73,16.8 27.43,19.26 13.24,4.18 14.02,15.78 14.02,206.45 V 5530 l -414.38,-0.23 c -243.94,-0.12 -409.76,-2.93 -403.12,-6.88 120.62,-71.17 754.8,-435.39 758.08,-435.39 2.54,0 10.63,6.68 17.97,14.8 z m 677.45,207.39 c 205,118.2 374.2,216.13 375.9,217.61 1.7,1.49 -183.1,2.7 -410.6,2.7 h -413.8 l 0.55,-401.25 27.85,-20.04 c 15.31,-11.05 32.22,-18.67 37.58,-16.99 5.31,1.68 177.42,99.8 382.52,217.97 z m -5039.13,548.43 -0.66,200.63 -27.73,23.75 -27.74,23.79 -380.62,-219.65 c -209.34,-120.78 -382.78,-221.76 -385.39,-224.37 -2.62,-2.62 181.44,-4.77 409.02,-4.77 h 413.75 l -0.67,200.62 z m 1011.29,-196.28 c -2.38,2.38 -175.78,103.36 -385.35,224.41 l -381.05,220.08 -27.74,-23.79 -27.77,-23.79 -1.25,-401.25 h 413.75 c 227.54,0 411.8,1.95 409.41,4.34 z m 1252.54,255.19 -1.95,259.53 -246.37,142.23 c -135.51,78.2 -247.3,141.13 -248.4,139.84 -1.13,-1.33 -96.87,-166.64 -212.81,-367.42 l -210.78,-365.04 19.18,-34.33 19.22,-34.34 h 883.9 z m 964.49,-225.55 18.99,33.99 -210.67,365.39 c -115.86,200.98 -211.56,366.52 -212.69,367.85 -1.09,1.37 -112.85,-61.52 -248.32,-139.76 l -246.25,-142.23 -1.99,-259.61 -1.96,-259.61 h 883.91 z m 1174.18,166.64 -0.66,200.63 -27.81,23.87 -27.85,23.86 -380.55,-219.76 c -209.3,-120.86 -382.7,-221.92 -385.27,-224.49 -2.62,-2.62 181.44,-4.73 409.02,-4.73 h 413.75 l -0.67,200.62 z M 10606.6,5661.8 c -2.4,2.38 -175.8,103.36 -385.4,224.37 l -381.12,220.08 -27.7,-23.75 -27.73,-23.75 -1.25,-401.25 h 413.8 c 227.5,0 411.7,1.95 409.4,4.3 z m -5883.44,280.62 c 278.99,160.78 379.97,222.5 376.88,230.47 -2.27,5.94 -4.14,21.88 -4.14,35.39 0,24.14 -2.89,26.17 -171.45,123.13 -94.29,54.21 -174.45,98.43 -178.12,98.28 -3.67,-0.16 -89.38,-144.22 -190.43,-320.16 -101.06,-175.9 -193.32,-336.44 -205,-356.76 -11.68,-20.31 -18.44,-35.35 -15,-33.47 3.44,1.91 177.69,102.3 387.26,223.12 z m 5902.44,-189.3 c -11.5,19.61 -103.8,179.07 -205.2,354.38 -124.1,214.65 -188.1,318.48 -196,317.85 -6.5,-0.51 -86.3,-44.02 -177.6,-96.76 l -165.9,-95.86 -1.13,-28.86 c -0.63,-15.9 -1.45,-32.42 -1.88,-36.8 -0.59,-6.02 755.51,-449.57 766.31,-449.57 1.3,0 -7.1,16.02 -18.6,35.62 z m -4390.95,-21.75 c -1.37,3.51 -100.12,175.39 -219.38,381.95 l -216.87,375.55 -34.69,-20.04 c -19.06,-11.06 -91.91,-53.21 -161.87,-93.71 l -127.19,-73.6 2.26,-143.51 373.87,-216.25 c 205.63,-118.95 376.68,-216.41 380.12,-216.53 3.44,-0.11 5.12,2.66 3.75,6.14 z m 2895.23,213.08 370.28,213.67 0.97,71.65 1.02,71.64 -131.25,75.58 c -72.19,41.6 -145.08,83.91 -161.99,94.03 l -30.71,18.43 -216.79,-375.5 c -119.22,-206.53 -218.09,-379.07 -219.65,-383.44 -1.6,-4.34 1.76,-6.06 7.5,-3.83 5.7,2.23 176.99,100.23 380.62,217.77 z m -4690.9,214.38 c 105.55,182.93 191.88,334.8 191.84,337.5 -0.04,2.69 -76.33,48.94 -169.57,102.73 l -169.49,97.81 -36.6,-11.56 -36.57,-11.56 0.04,-446.25 c 0,-441.02 0.16,-445.98 14.22,-423.75 7.85,12.38 100.59,172.15 206.13,355.08 z m 2183.64,-29.81 c 108.01,187 203.51,352.7 212.22,368.21 l 15.86,28.24 -242.5,139.76 c -133.36,76.88 -246.68,139.77 -251.83,139.77 -12.85,0 -442.97,-248.36 -442.97,-255.82 0,-3.28 98.12,-176.02 218.08,-383.87 l 218.05,-377.89 38.4,0.78 38.36,0.78 z m 2220.62,33.36 c 119.03,205.94 217.35,378.44 218.52,383.28 1.17,4.85 -97.81,66.37 -219.96,136.76 l -222.11,127.97 -245.04,-141.6 c -141.25,-81.64 -243.99,-145.51 -242.62,-150.82 2.42,-9.14 403.17,-706.95 414.77,-722.15 3.32,-4.37 22.69,-7.93 43.04,-7.93 h 37 z m 1915.06,66.99 -0.1,444.38 -36.6,11.56 -36.6,11.56 -169.6,-97.69 c -93.2,-53.75 -169.5,-100.04 -169.5,-102.89 0,-6.37 406.2,-711.29 409.8,-711.29 1.5,0 2.7,199.96 2.6,444.37 z m -2755.25,371.53 516.6,298.44 v 1203.9 l -513.36,296.37 c -282.34,163.01 -518.59,294.84 -525,292.93 -6.41,-1.88 -239.45,-135.2 -517.89,-296.25 L 6457.15,8103.48 V 6898.95 l 513.75,-297.58 c 282.54,-163.67 514.14,-297.89 514.65,-298.25 0.54,-0.35 233.4,133.68 517.5,297.78 z m -593.4,724.33 c -76.84,36.06 -112.15,91.92 -112.15,177.27 0,67.38 16.37,104.26 64.69,145.62 31.68,27.11 88.59,49.38 126.21,49.38 64.53,0 134.8,-42.66 170.43,-103.48 27.26,-46.48 29.37,-131.29 4.45,-177.77 -50.66,-94.45 -161.52,-134.22 -253.63,-91.02 z M 5595.47,6445.55 c 86.17,49.8 159.37,93.16 162.66,96.36 4.72,4.57 -385.59,693.75 -427.08,754.14 -8.59,12.5 -10.15,-53.04 -10.15,-428 v -442.78 l 40.19,-16.68 c 22.11,-9.18 48.01,-24.96 57.58,-35.11 9.53,-10.16 17.97,-18.48 18.71,-18.48 0.78,0 71.92,40.74 158.09,90.55 z m 3962.66,-72.07 c 9.53,10.15 35.42,25.93 57.53,35.11 l 40.24,16.68 v 442.62 c 0,243.44 -2.85,439.41 -6.29,435.47 -21.95,-24.84 -436.25,-756.33 -431.21,-761.33 7.07,-7.03 311.4,-185.35 318.05,-186.37 2.38,-0.35 12.14,7.66 21.68,17.82 z m -4336.88,38.79 32.15,12.26 v 442.74 c 0,243.51 -1.92,440.82 -4.26,438.51 -13.67,-13.71 -407.97,-706.05 -404.22,-709.8 8.36,-8.36 329.57,-194.46 336.96,-195.24 3.98,-0.39 21.71,4.77 39.37,11.53 z m 4749.61,88.94 c 90.74,52.34 165.04,96.13 165.04,97.31 0,2.81 -379.69,661.32 -398.01,690.23 -14.1,22.27 -14.26,17.58 -14.37,-420.86 l -0.12,-443.36 28.12,-11.72 c 15.47,-6.44 33.99,-10.58 41.21,-9.22 7.19,1.37 87.35,45.32 178.13,97.62 z m -3864.34,239.92 219.38,126.06 v 567.93 l -427.66,-1.92 -427.69,-1.95 -17.82,-30 -17.77,-30 214.84,-371.29 c 245.16,-423.71 225.59,-391.01 232.23,-387.54 2.81,1.49 103.83,59.42 224.49,128.71 z m 3218.09,255.2 216.02,374.18 -18.01,32.26 -18.01,32.23 H 8650.9 v -568.2 l 222.81,-128.32 c 122.58,-70.59 225.55,-125.63 228.83,-122.31 3.32,3.28 103.24,174.38 222.07,380.16 z m -4386.52,27.11 c 110.62,191.29 200.11,348.94 198.86,350.31 -1.87,2.03 -699.14,-397.54 -750.7,-430.23 -14.49,-9.18 -15.23,-13.29 -8.55,-47.07 l 7.3,-37.04 169.77,-98.12 c 93.36,-53.99 172.57,-95.35 176.01,-91.92 3.4,3.44 96.72,162.74 207.31,354.07 z m 5482.71,-262.5 170,98.4 7.6,37.18 c 7,34.03 6.3,38.01 -8,47.07 -53.3,33.52 -748.84,432.03 -750.63,430.08 -2.66,-2.85 403.43,-710.35 407.93,-710.86 1.7,-0.15 79.6,43.99 173.1,98.13 z M 4062.66,7015 l 28.04,18.75 0.08,200.62 0.12,200.63 h -410 c -225.51,0 -408.13,-1.88 -405.82,-4.18 8.12,-8.12 752.11,-437.23 755.82,-435.9 2.07,0.74 16.37,9.77 31.76,20.08 z m 664.22,199.69 c 205,118.2 374.17,216.13 375.89,217.61 1.72,1.49 -183.08,2.7 -410.62,2.7 H 4278.4 v -392.15 l 28.12,-24.88 c 15.47,-13.71 32.5,-23.36 37.86,-21.52 5.31,1.83 177.46,100.07 382.5,218.24 z m 5941.92,-197.82 29.3,24.38 0.1,196.87 0.2,196.88 -414.4,-0.23 c -242.3,-0.12 -409.7,-2.97 -403.1,-6.84 90.43,-53.05 754.4,-435.43 756.1,-435.43 1.3,0 15.6,10.98 31.8,24.37 z m 642.3,186.76 c 201.3,116.14 372.7,215.71 380.8,221.25 12.5,8.56 -48.9,10.12 -395.6,10.12 h -410.4 l 0.5,-401.25 27.9,-20.04 c 15.3,-11.05 28.5,-20.31 29.3,-20.62 0.7,-0.32 166.1,94.41 367.5,210.54 z m -7220.36,559.49 -0.11,200.63 -28.6,23.71 -28.59,23.75 -380.28,-219.65 c -209.18,-120.78 -382.46,-221.76 -385.03,-224.33 -2.62,-2.62 181.44,-4.73 409.02,-4.73 h 413.75 z m 1008.52,-193.59 c -3.91,3.87 -176.92,105.08 -384.46,224.92 l -377.34,217.93 -23.91,-22.42 c -13.16,-12.3 -26.44,-22.42 -29.53,-22.42 -3.08,0 -5.62,-91.17 -5.62,-202.54 v -202.5 h 413.98 c 257.82,0 411.33,2.66 406.88,7.03 z m 1226.48,279.84 -0.15,286.88 -220.51,126.64 c -121.29,69.65 -223.32,126.21 -226.72,125.7 -3.44,-0.54 -104.77,-171.52 -225.2,-380.04 l -218.94,-379.06 18.32,-27.07 c 10.12,-14.84 18.36,-29.92 18.36,-33.47 0,-3.56 192.38,-6.45 427.5,-6.45 h 427.5 z M 9520.23,7596.6 c 17.23,32.38 17.5,35.27 6.22,58.13 -21.96,44.41 -421.76,732.03 -426.92,734.29 -2.81,1.21 -104.84,-55.15 -226.72,-125.27 l -221.64,-127.5 -0.15,-286.88 -0.12,-286.87 h 851.29 l 18.08,34.1 z M 10698.4,7765 c 0,111.37 -2.6,202.5 -5.8,202.5 -3.2,0 -16.8,10 -30.1,22.19 l -24.3,22.18 -376.8,-217.57 c -207.2,-119.65 -379.95,-220.78 -383.9,-224.69 -4.49,-4.49 145.7,-7.11 406.9,-7.11 h 414 z m 1010.7,-198.16 c -2.4,2.38 -175.7,103.28 -385.2,224.25 l -380.7,219.96 -28.6,-23.67 -28.4,-23.63 -0.2,-200.63 -0.1,-200.62 h 413.7 c 227.6,0 411.8,1.95 409.5,4.34 z m -6773.75,416.48 c -112.22,194.34 -207.22,352.89 -211.13,352.34 -3.91,-0.54 -81.84,-43.94 -173.17,-96.44 l -166.09,-95.47 -7.62,-37.5 c -5.58,-27.54 -5.31,-38.87 1.1,-42.7 131.91,-78.9 746.21,-432.26 752.34,-432.77 4.73,-0.43 -83.2,158.2 -195.43,352.54 z m 5298.45,-130.51 371.6,214.53 -14.1,76.41 -171.4,98.59 -171.4,98.56 -25.3,-42.31 c -14,-23.28 -90.4,-155.39 -169.9,-293.59 -79.51,-138.2 -161.11,-279.53 -181.42,-314.1 -26.65,-45.39 -33.09,-61.41 -23.29,-57.7 7.46,2.82 180.81,101.64 385.21,219.61 z M 5253.4,8140 c 0,394.65 -1.25,442.5 -11.64,442.5 -6.37,0 -21.56,5.16 -33.75,11.45 -21.99,11.36 -23.01,10.93 -192.74,-87 -93.86,-54.1 -171.79,-99.53 -173.24,-100.9 -1.44,-1.4 82.66,-150.35 186.88,-331.01 225.66,-391.09 217.69,-377.54 221.48,-377.54 1.64,0 3.01,199.14 3.01,442.5 z m 296.17,-57.66 c 118.44,205.51 213.63,375.36 211.52,377.46 -2.11,2.11 -75.5,45.12 -163.08,95.63 l -159.22,91.8 -23.32,-21.41 c -12.85,-11.76 -39.38,-27.11 -58.95,-34.14 l -35.62,-12.7 v -442.22 c 0,-257.89 2.77,-439.3 6.64,-435.12 3.67,3.91 103.59,175.23 222.03,380.7 z m 4106.33,56.72 v 441.56 l -20.94,4.18 c -11.52,2.31 -39.1,16.68 -61.29,31.96 -29.88,20.54 -43.4,25.9 -52.19,20.66 -6.52,-3.9 -78.63,-45.39 -160.31,-92.22 -99.22,-56.92 -147.19,-88.44 -144.65,-95.08 8.91,-23.13 431.96,-752.62 436.49,-752.62 1.56,0 2.89,198.71 2.89,441.56 z m 280.98,-82.85 c 110.12,191.13 199.22,348.52 197.82,349.73 -1.4,1.25 -78.8,46.29 -172,100.15 l -169.46,97.89 -34.92,-12.53 -34.92,-12.58 v -442.19 c 0,-253.44 2.81,-439.14 6.56,-435.04 3.59,3.91 96.72,163.48 206.92,354.57 z M 6603.4,8334.1 c 134.06,77.62 243.48,143.67 243.2,146.76 -0.31,3.12 -94.8,169.1 -210,368.87 l -209.45,363.16 -40.63,-2.07 -40.58,-2.07 -216.33,-374.92 c -118.95,-206.21 -215.23,-378.01 -213.98,-381.8 2.07,-6.21 431.32,-258.67 440.27,-258.94 2.07,-0.08 113.44,63.39 247.5,141.01 z m 2242.5,-11.99 c 117.54,68.05 213.75,127.93 213.75,133.09 0,5.15 -99.57,182.53 -221.25,394.25 l -221.25,384.89 -27.35,0.35 -27.34,0.31 -214.76,-371.91 c -118.13,-204.57 -215.51,-375.47 -216.41,-379.77 -1.95,-9.26 482.42,-291.76 493.36,-287.7 4.1,1.53 103.67,58.44 221.25,126.49 z m -4377.7,85.51 c 116.1,66.91 162.39,97.34 159.5,104.88 -3.99,10.43 -400.98,700.78 -406.49,706.87 -1.56,1.72 -2.81,-197.5 -2.81,-442.73 v -445.86 l 31.87,-11.95 c 17.54,-6.6 36.92,-10.51 43.13,-8.71 6.17,1.79 84.84,45.66 174.8,97.5 z m 6253.6,-89.61 36.6,13.01 v 446.36 c 0,435.55 -0.3,445.82 -13.8,423.87 -64.8,-106.41 -393.2,-682.19 -394,-690.7 -0.6,-6.8 61.9,-47.74 164.1,-107.5 90.7,-53.09 166.2,-96.88 167.7,-97.31 1.5,-0.39 19.2,5.12 39.4,12.27 z M 6021.8,8900 c 118.43,205.55 213.98,375.12 212.3,376.76 -1.64,1.68 -173.2,-95.16 -381.25,-215.2 l -378.2,-218.24 2.26,-143.83 159.89,-92.11 c 87.93,-50.66 162.03,-89.65 164.72,-86.64 2.7,3.05 101.8,173.71 220.28,379.26 z m 3363.08,-266.6 115.28,67.11 0.97,71.21 1.02,71.17 -232.35,134.18 c -127.77,73.79 -300.78,173.67 -384.41,221.91 -108.83,62.78 -149.61,83.01 -143.32,71.25 6.17,-11.6 353.32,-614.72 431.64,-749.92 3.71,-6.36 33.52,9.57 211.17,113.09 z m -2192.73,40.86 c 115.51,66.48 222.69,128.79 238.2,138.47 l 28.24,17.58 -1.99,256.72 -1.95,256.72 -440.86,1.95 c -414.81,1.8 -441.09,1.14 -445.59,-11.25 -2.61,-7.26 -11.25,-22.58 -19.18,-34.02 l -14.41,-20.82 212.19,-367.5 c 162.69,-281.76 214.92,-366.49 223.79,-363.13 6.36,2.39 106.05,58.75 221.56,125.28 z m 967.3,116.36 c 77.97,135.08 175.16,303.68 216.02,374.61 l 74.26,129.03 -40.71,53.36 -443.43,-1.96 -443.44,-1.91 -1.99,-257.07 -1.96,-257.07 27.74,-16.68 c 116.83,-70.23 457.73,-266.52 463.98,-267.15 4.3,-0.43 71.6,109.77 149.53,244.84 z m -3200.31,-99.6 133.01,77.3 4.53,36.45 c 2.5,20.07 4.18,36.95 3.75,37.5 -4.92,6.4 -758.09,436.68 -760.39,434.37 -1.72,-1.72 87.07,-159.45 197.34,-350.51 110.24,-191.05 201.96,-350 203.79,-353.24 3.6,-6.17 10.2,-2.58 217.97,118.13 z m 5480.56,236.48 c 110.4,191.8 202.6,351.91 204.8,355.82 2.2,3.87 -7.5,-0.08 -21.6,-8.79 -14.2,-8.67 -187.7,-109.22 -385.7,-223.4 -198.1,-114.18 -360.72,-208.2 -361.54,-208.98 -0.82,-0.74 0.86,-17.78 3.75,-37.85 l 5.24,-36.49 172.55,-99.8 c 94.8,-54.89 174.5,-97.42 177.1,-94.53 2.5,2.89 95,162.22 205.4,354.02 z m -5275.95,-5.63 29.38,24.38 0.11,200.62 0.16,200.63 h -414.02 c -275.83,0 -411.49,-2.5 -406.49,-7.5 6.21,-6.21 751.76,-440.23 759.14,-441.95 1.29,-0.32 15.59,10.43 31.72,23.82 z m 658.87,196.41 c 206.68,119.38 375.78,219.77 375.78,223.13 0,3.36 -183.95,6.09 -408.75,6.09 H 5380.9 v -399.65 l 28.12,-24.84 c 15.47,-13.67 30.32,-24.14 32.97,-23.28 2.66,0.82 173.95,99.18 380.63,218.55 z m 3743.63,-196.41 29.38,24.38 0.11,200.62 0.16,200.63 h -414.02 c -274.81,0 -411.49,-2.5 -406.53,-7.46 6.25,-6.25 752.07,-440.51 759.18,-442.03 1.29,-0.28 15.59,10.47 31.72,23.86 z m 653.35,193.52 c 207.6,119.84 380.8,221.09 384.7,225 4.5,4.49 -145.9,7.11 -406.9,7.11 h -414 v -401.25 l 28.12,-24.1 c 15.47,-13.24 28.68,-24.22 29.3,-24.38 0.66,-0.15 171.08,97.78 378.78,217.62 z m -5026.36,552.73 -0.11,200.63 -29.38,24.37 -29.37,24.42 -377.19,-217.74 c -207.46,-119.72 -380.47,-220.97 -384.49,-225 -4.73,-4.72 138.08,-7.3 406.68,-7.3 H 5193.4 Z M 6198.4,9473.55 c 0,3.32 -170.7,104.57 -379.34,224.93 l -379.33,218.86 -29.3,-24.29 -29.26,-24.3 -0.15,-200.63 -0.12,-200.62 h 408.75 c 224.8,0 408.75,2.73 408.75,6.05 z m 1258.24,186.76 1.99,189.03 -29.02,7.85 c -15.98,4.29 -44.18,19.33 -62.62,33.43 l -33.59,25.63 -379.85,-218.75 c -208.9,-120.31 -379.92,-221.33 -380,-224.45 -0.07,-3.13 198.13,-4.81 440.47,-3.75 l 440.63,1.95 z m 937.77,-184.61 c -1.52,4.53 -171.01,105.43 -376.68,224.26 l -373.94,216.02 -34.57,-24.53 c -19.02,-13.48 -47.23,-28.6 -62.7,-33.56 l -28.12,-9.06 v -185.67 c 0,-102.11 2.23,-187.93 5,-190.66 9.1,-9.1 874.02,-5.9 871.01,3.2 z m 1201.14,181.17 -0.32,189.38 -36.21,31.6 -36.17,31.64 -371.99,-214.61 c -204.57,-118.04 -370.2,-217.5 -368.05,-221.01 2.19,-3.48 186.02,-6.37 408.52,-6.37 h 404.57 z m 1008.75,-182.34 c -3.9,3.91 -173.9,103.32 -377.6,220.94 l -370.45,213.87 -36.09,-31.57 -36.1,-31.52 -0.35,-189.38 -0.31,-189.37 h 414 c 258.3,0 411.3,2.66 406.9,7.03 z m -4368.4,64.53 c 0,2.23 -91.49,162.58 -203.28,356.33 l -203.32,352.31 -38.56,-22.1 c -21.25,-12.2 -99.33,-57.3 -173.59,-100.3 l -135,-78.1 -5.27,-36.6 c -3.64,-25.52 -2.5,-38.26 3.75,-41.93 199.02,-116.68 745.58,-432.26 749.64,-432.85 3.09,-0.47 5.63,1.02 5.63,3.24 z m 687.11,214.69 378.94,218.75 -5.11,38.1 c -2.86,21 -5.59,38.4 -6.18,38.7 -0.54,0.3 -78.28,45.1 -172.69,99.6 -94.42,54.4 -172.42,98 -173.28,96.9 -1.25,-1.5 -390.47,-676.82 -406.49,-705.18 -1.75,-3.08 -1.17,-5.62 1.33,-5.62 2.5,0 175.08,98.44 383.48,218.75 z M 8433.4,9546.17 c 0,2.74 -392.93,687.43 -401.56,699.73 -1.06,1.5 -270.75,-151.8 -346.18,-196.8 -0.82,-0.4 -2.53,-18.5 -3.75,-40.1 l -2.26,-39.31 367.5,-213.01 c 334.14,-193.67 386.25,-222.07 386.25,-210.51 z m 693.75,209.1 367.5,212.46 v 79.07 l -172.5,99.9 c -94.88,54.9 -174.65,97.6 -177.31,94.7 -10.46,-11.3 -396.44,-684.49 -396.44,-691.44 0,-4.1 2.54,-7.38 5.62,-7.3 3.09,0.07 170.98,95.74 373.13,212.61 z M 6355.9,10043.2 v 440.8 l -36.45,12.9 -36.4,12.9 -170.24,-98.4 c -133.51,-77.2 -169.26,-101 -165.62,-110.5 4.41,-11.5 321.91,-564.18 376.48,-655.28 14.18,-23.71 27.27,-43.12 29.03,-43.12 1.75,0 3.2,198.32 3.2,440.7 z m 247.5,-135.62 c 96.91,167.82 188.75,327.42 204.06,354.62 l 27.81,49.6 -173,99.7 -172.97,99.7 -34.85,-15.1 -34.8,-15 -1.95,-439.3 c -1.06,-241.6 0.62,-439.3 3.75,-439.3 3.12,0.04 85,137.3 181.95,305.08 z M 8560.9,10067 v 440.5 l -26.33,8.1 c -25.59,7.8 -31.25,5.2 -208.12,-97 -100,-57.7 -182.66,-105.8 -183.72,-106.8 -1.01,-1 87.97,-157.4 197.74,-347.5 140.86,-243.95 202.66,-344.5 210,-341.68 8.71,3.32 10.43,75.66 10.43,444.38 z m 281.09,-94.85 c 106.37,184.75 191.1,338.15 188.36,340.95 -2.77,2.7 -84.84,51 -182.46,107.3 -168.79,97.3 -178.63,101.9 -202.23,94.7 l -24.76,-7.6 v -440 c 0,-241.99 2.3,-442.34 5.15,-445.2 2.86,-2.81 9.11,-0.85 13.91,4.38 4.77,5.27 95.7,160.7 202.03,345.47 z m 811.14,240.05 c 1.6,1.6 2.03,207.1 0.93,456.6 l -1.91,453.7 -205.24,-355.4 c -112.89,-195.5 -204.02,-356.6 -202.5,-358.1 1.49,-1.5 82.04,-48.7 178.99,-104.9 153.24,-88.8 179.53,-101.6 201.56,-98.4 13.91,2 26.6,5 28.17,6.5 z m -4093.75,96 c 93.63,54 171.4,99.3 172.77,100.7 1.37,1.3 -90.59,163.7 -204.38,360.9 l -206.87,358.4 v -892.4 l 31.87,-12 c 17.54,-6.6 32.86,-12.4 34.11,-12.9 1.21,-0.5 78.82,43.3 172.5,97.3 z m 1898.9,373.9 c 0.08,256.1 -2.69,442.9 -6.48,438.8 -11.45,-12.4 -405.9,-699.9 -405.9,-707.4 0,-4 75.78,-50.8 168.4,-104.2 l 168.43,-96.9 37.74,11.9 37.73,12 z m 309.34,-369.7 c 89.8,51.7 163.28,97.2 163.28,101 0,7.2 -394.69,694.7 -406.13,707.5 -3.52,3.9 -6.37,-193.7 -6.37,-440.7 0,-421.3 0.78,-447.7 13.12,-448 7.23,-0.1 21.57,-5 31.88,-11 10.31,-5.9 23.75,-8.9 29.84,-6.8 6.1,2.2 84.57,46.3 174.38,98 z m -1571.72,397.1 7.03,38.3 -382.89,221.3 c -210.59,121.7 -383.83,220.6 -384.92,219.7 -1.6,-1.3 240.23,-422.9 381.48,-665 l 29.14,-49.9 171.56,98.7 171.57,98.7 z m 942.93,126.4 c 109.45,189.6 197.69,346 196.09,347.6 -1.64,1.6 -173.79,-95.7 -382.54,-216.2 l -379.61,-219.2 4.93,-34.7 c 2.73,-19.1 7.07,-36.9 9.68,-39.7 2.62,-2.8 80.67,-49 173.4,-102.8 115.74,-67 170.31,-94.8 173.87,-88.7 2.85,5 94.73,164.1 204.18,353.7 z m 1092.07,-256.1 161.25,93.6 1.95,40.2 1.99,40.2 -338.94,195 c -186.41,107.2 -358.48,206.1 -382.46,219.7 l -43.52,24.7 109.42,-189.7 c 60.15,-104.4 153.55,-266.3 207.5,-359.9 79.68,-138.2 100.31,-168.9 109.84,-163.7 6.45,3.5 84.26,48.5 172.97,99.9 z m 1098.87,237.7 c 105.93,183.6 197.53,343.2 203.59,354.9 10.23,19.8 10.08,20.7 -2.66,13.4 -7.46,-4.3 -178.94,-103.5 -381.05,-220.4 l -367.5,-212.7 0.9,-39.4 0.93,-39.5 171.57,-99.5 c 94.37,-54.8 173.83,-97.5 176.6,-95.1 2.73,2.5 91.64,154.7 197.62,338.3 z M 995.898,3758.12 c 1.832,3.09 223.442,387 492.422,853.13 268.98,466.13 491.25,849.8 493.95,852.66 3.86,4.1 980.58,-1677.46 989.88,-1704.18 1.6,-4.61 -357.66,-7.23 -988.6,-7.23 -545.07,0 -989.53,2.54 -987.652,5.62 z m 2196.252,0.63 c 12.58,31.52 984.76,1703.83 989.53,1702.19 5.12,-1.76 940.27,-1614.34 978.79,-1687.82 l 10.82,-20.62 h -990.82 c -544.96,0 -989.69,2.81 -988.32,6.25 z m 6623.4,25.62 c 10.23,17.54 231.85,401.45 492.55,853.13 260.7,451.68 476.2,823.52 479,826.29 4,3.94 980,-1676.33 990,-1704.34 1.6,-4.25 -380.9,-6.95 -988.8,-6.95 h -991.35 z m 2187.85,-27.57 c 0,11.64 986.8,1711.75 991,1707.22 2.6,-2.89 219.9,-378.2 482.7,-834.02 262.9,-455.82 484.6,-839.73 492.7,-853.13 l 14.8,-24.37 H 12994 c -544.8,0 -990.6,1.91 -990.6,4.3 z m -9414.42,917.34 c -271.21,469.81 -493.08,856.25 -493.08,858.75 0,2.54 445.51,4.61 990,4.61 544.49,0 990,-2.19 990,-4.88 0,-7.66 -985.43,-1712.62 -989.88,-1712.62 -2.19,0 -225.86,384.37 -497.04,854.14 z m 8804.82,-0.35 c -271.1,469.61 -492.9,856.05 -492.9,858.75 0,2.73 445.5,4.96 990,4.96 544.5,0 990,-2.07 990,-4.57 0,-7.46 -985.9,-1712.93 -990.2,-1712.93 -2.2,0 -225.8,384.22 -496.9,853.79 z M 841.762,4039.37 C 405.898,4870 125.121,5812.77 33.7891,6752.5 5.26953,7045.66 0.160156,7158.95 0,7498.75 c -0.160156,342.62 5.69922,472.77 33.8711,753.75 80.1089,798.59 286.4809,1576.09 612.1489,2306.3 88.71,198.9 273.281,560.8 281.71,552.3 3.75,-3.7 29.649,-46.2 57.579,-94.4 l 50.741,-87.6 -56.249,-109.7 C 463.828,9812.62 182.809,8641.09 183.48,7499.53 c 0.7,-1115.51 256.641,-2214.3 750.391,-3221.13 53.359,-108.83 97.029,-201.21 97.029,-205.28 0,-9.49 -99.92,-185.46 -105.349,-185.54 -2.27,0 -39.961,68.28 -83.789,151.79 z m 13151.938,-58.94 -53.4,92.62 67.7,134.1 c 199.8,395.66 371.9,834.69 496.5,1266.6 409.2,1418.44 381.5,2909.77 -80.1,4316.25 -112.8,343.8 -277.1,738.5 -429.4,1032 l -54.9,105.7 51.2,89.3 c 28.2,49.1 55.6,89.3 61,89.3 14,0 237.4,-449.1 319.1,-641.3 488.3,-1148.24 684.5,-2356.45 582.8,-3588.75 -68,-824.45 -278.8,-1651.99 -614.4,-2411.25 -76.7,-173.59 -278.8,-577.5 -288.9,-577.3 -2.1,0.07 -27.8,41.75 -57.2,92.73 z M 2097.15,5664.14 c 6.25,16.56 985.43,1710.27 988.75,1710.27 3.32,0 982.42,-1693.71 988.75,-1710.31 1.4,-3.79 -422.07,-6.6 -988.75,-6.6 -571.25,0 -990.2,2.81 -988.75,6.64 z m 8804.95,0.27 c 1.4,3.83 223.6,390.04 493.8,858.25 369.2,639.88 493.3,849.1 499.7,842.46 8.1,-8.52 985.3,-1699.38 985.3,-1704.92 0,-1.49 -445.8,-2.7 -990.6,-2.7 -602,0 -989.7,2.73 -988.2,6.91 z m -9078.62,332.07 c -88.91,153.87 -311.68,539.65 -495,857.27 l -333.402,577.5 986.642,1.91 c 542.62,1.02 988.01,0.51 989.73,-1.21 2.3,-2.3 -973.44,-1700.19 -984.38,-1712.97 -1.09,-1.25 -74.69,123.64 -163.59,277.5 z m 10672.62,577.54 c -271.5,470.32 -492.2,856.45 -490.6,858.05 1.6,1.64 446.8,2.11 989.3,1.09 l 986.4,-1.91 -492.4,-852.85 c -270.8,-469.06 -493.9,-854.34 -495.7,-856.17 -1.9,-1.84 -225.6,381.48 -497,851.79 z M 995.551,7568.12 c 31.439,58.13 977.769,1695.9 983.669,1702.5 6.44,7.11 125.12,-192.77 501.29,-844.29 271.09,-469.49 492.89,-855.94 492.89,-858.71 0,-2.82 -445.7,-5.12 -990.47,-5.12 -544.73,0 -989.059,2.54 -987.379,5.62 z m 11007.849,-0.54 c 0,13.01 986.2,1711.64 990.9,1706.72 3,-3.05 218.7,-375.12 479.4,-826.8 260.6,-451.68 482.3,-835.59 492.5,-853.13 l 18.6,-31.87 h -990.7 c -544.9,0 -990.7,2.3 -990.7,5.08 z m -9414.69,915.39 -492.58,853.28 494.89,1.91 c 272.18,1.1 717.65,1.1 989.96,0 l 495.07,-1.91 L 3584.61,8485 c -270.27,-468.2 -494.1,-852.15 -497.34,-853.28 -3.29,-1.1 -227.62,381.95 -498.56,851.25 z m 8804.49,0.15 -492.5,853.13 495.1,1.91 c 272.3,1.1 717.8,1.1 990,0 l 494.8,-1.91 -492.5,-853.13 c -271,-469.21 -494.8,-853.12 -497.5,-853.12 -2.7,0 -226.5,383.91 -497.4,853.12 z m -9278.71,1020 c 104.81,187.66 967.27,1674.38 971.33,1674.38 3.75,0 950.55,-1633.32 988.01,-1704.38 1.6,-3.08 -443.05,-5.62 -988.13,-5.62 h -991.09 z m 8787.61,-29.37 c 12.6,31.48 984.8,1703.85 989.6,1702.15 4.7,-1.6 809.2,-1388.24 968.3,-1669.03 l 22.3,-39.37 H 11891 c -545.3,0 -990.2,2.81 -988.9,6.25 z m -9413.7,913.75 c -270.2,468.5 -492.38,854.8 -493.752,858.4 -1.449,3.8 422.932,6.6 988.672,6.6 831.21,0 990.78,-1.6 988.75,-10.2 -3.91,-16.4 -982.15,-1707.34 -987.54,-1706.99 -2.69,0.2 -225.94,383.64 -496.13,852.19 z m 2195.39,1.3 c -271.09,469.6 -492.89,856 -492.89,858.7 0,2.8 445.51,5 990,5 544.49,0 990,-2.1 990,-4.7 0,-7.6 -985.82,-1712.8 -990.24,-1712.8 -2.18,0 -225.78,384.22 -496.87,853.8 z m 6609.61,-1.6 c -270.2,468.5 -492.38,854.8 -493.75,858.5 -1.49,4 403.45,6.8 988.65,6.8 815.3,0 990.8,-1.8 988.8,-9.8 -4,-16.1 -982.5,-1707.74 -987.7,-1707.47 -2.6,0.16 -225.8,383.56 -496,851.97 z m 2658.1,-790.33 c -19.6,34.03 -240.9,417.43 -491.9,852.13 -250.9,434.6 -456.2,793.2 -456.2,796.9 0,3.8 420.4,6.6 990.6,6.6 558.5,0 989.6,-2.8 988.1,-6.5 -7.7,-20.3 -985.8,-1710.41 -989.9,-1710.69 -2.8,-0.15 -21.1,27.54 -40.7,61.56 z M 1075.9,11377.3 c 0,19 266.01,415.7 394.14,587.7 246.37,330.9 470.66,587.6 773.09,885 1221.17,1201 2805.78,1940.9 4513.43,2107.3 219.18,21.3 584.73,40.9 580.32,31.1 -1.22,-2.7 -25.67,-45.8 -54.34,-95.7 l -52.11,-90.7 -101.64,-5.1 c -647.58,-32.2 -1311.6,-158.2 -1939.14,-368 -1560.7,-521.6 -2903.2,-1550.3 -3803.91,-2914.8 l -93.44,-141.6 h -108.2 c -59.53,0 -108.2,2.2 -108.2,4.8 z m 2115,0.3 c 0,7.9 985.15,1712.4 989.73,1712.4 4.29,-0.1 990.27,-1705.6 990.27,-1713.1 0,-2.4 -445.51,-4.4 -990,-4.4 -544.49,0 -990,2.3 -990,5.1 z m 2206.25,1.7 c 6.83,18.6 985.66,1710.3 989.69,1710.5 5.15,0.2 983.79,-1691.5 987.73,-1707.5 1.99,-8 -174.53,-9.8 -988.75,-9.8 -588.75,0 -990.16,2.8 -988.67,6.8 z m 2203.75,0 c 0,10.1 980.7,1706.4 987.69,1708.3 4.65,1.3 980.2,-1680.6 991.06,-1708.7 1.37,-3.5 -437.38,-6.4 -988.13,-6.4 -581.17,0 -990.62,2.8 -990.62,6.8 z m 2198.75,0.1 c 6.48,18 985.55,1710.2 989.55,1710.4 4.7,0.2 976.7,-1680.1 985.8,-1704.2 4.7,-12.4 -45.3,-13.1 -986.4,-13.1 -602.5,0 -990.47,2.7 -988.95,6.9 z m 3775.15,158.3 c -184,277 -414,573.7 -648,836.1 -197.1,220.9 -513.6,524.4 -762.2,731 -1224,1017.1 -2743.51,1612.2 -4320.5,1692.2 l -98.05,4.9 -51.95,90.2 c -28.59,49.6 -53.01,92.8 -54.26,96 -2.38,5.9 36.88,4.7 291.06,-8.8 1206.95,-64.1 2429,-447.4 3476.5,-1090.5 898.9,-551.9 1697.3,-1315.7 2285.3,-2186.3 93.2,-137.8 208.2,-317.9 208.2,-325.9 0,-2.2 -48.7,-4.1 -108.1,-4.1 h -108.2 z m -8783.98,759 -494.77,857.1 498.01,1.9 c 273.91,1.1 719.92,1.1 991.21,0 l 493.21,-1.9 -492.74,-853.4 c -270.97,-469.3 -494.37,-854.9 -496.44,-857 -2.07,-2 -226.37,382 -498.48,853.3 z m 2202.58,-4.2 c -270.2,468.6 -492.38,854.8 -493.75,858.4 -1.45,3.8 426.4,6.6 988.75,6.6 548.75,0 990.12,-2.9 988.75,-6.4 -6.64,-17.2 -985.51,-1710.4 -988.75,-1710.4 -2.07,0 -224.81,383.3 -495,851.8 z m 2199.76,4.1 -494.8,857.2 498.09,1.9 c 273.98,1.1 720,1.1 991.15,0 l 493.1,-1.9 -492.7,-853.5 c -271.01,-469.4 -494.37,-855 -496.36,-857.1 -2.03,-2 -226.37,382 -498.48,853.4 z m -2693.51,994.6 c 12.77,31.9 984.92,1703.8 989.69,1702.2 5.15,-1.7 941.17,-1615.9 978.67,-1687.8 l 10.78,-20.6 h -990.82 c -544.96,0 -989.69,2.8 -988.32,6.2 z"
         style="fill:#000000;fill-opacity:1;fill-rule:nonzero;stroke:none"
         id="path12" />
    </g>
  </g>
</svg>
