<?xml version="1.0" encoding="UTF-8" standalone="no"?>
<!-- Created with Inkscape (http://www.inkscape.org/) -->

<svg
   version="1.1"
   id="svg2"
   width="1333.3333"
   height="1333.3333"
   viewBox="0 0 1333.3333 1333.3333"
   sodipodi:docname="LOGO_01-19112019.ai"
   xmlns:inkscape="http://www.inkscape.org/namespaces/inkscape"
   xmlns:sodipodi="http://sodipodi.sourceforge.net/DTD/sodipodi-0.dtd"
   xmlns="http://www.w3.org/2000/svg"
   xmlns:svg="http://www.w3.org/2000/svg">
  <defs
     id="defs6">
    <clipPath
       clipPathUnits="userSpaceOnUse"
       id="clipPath16">
      <path
         d="M 0,1000 H 1000 V 0 H 0 Z"
         id="path14" />
    </clipPath>
  </defs>
  <sodipodi:namedview
     id="namedview4"
     pagecolor="#ffffff"
     bordercolor="#000000"
     borderopacity="0.25"
     inkscape:showpageshadow="2"
     inkscape:pageopacity="0.0"
     inkscape:pagecheckerboard="0"
     inkscape:deskcolor="#d1d1d1" />
  <g
     id="g8"
     inkscape:groupmode="layer"
     inkscape:label="LOGO_01-19112019"
     transform="matrix(1.3333333,0,0,-1.3333333,0,1333.3333)">
    <g
       id="g10">
      <g
         id="g12"
         clip-path="url(#clipPath16)">
        <g
           id="g18"
           transform="translate(485.1089,968.1118)">
          <path
             d="m 0,0 7.045,12.202 c -82.306,-1.63 -162.942,-24.41 -233.558,-66.031 -68.447,-40.345 -126.197,-97.443 -167.335,-165.378 h 14.098 C -297.646,-88.366 -154.156,-5.533 0,0"
             style="fill:#0d0906;fill-opacity:1;fill-rule:nonzero;stroke:none"
             id="path20" />
        </g>
        <g
           id="g22"
           transform="translate(34.229,500.9067)">
          <path
             d="m 0,0 c 0,76.597 18.817,152.135 54.524,219.3 l -7.041,12.195 C 8.552,160.976 -12,81.063 -12,0 -12,-81.067 8.553,-160.981 47.488,-231.502 l 7.037,12.201 C 18.817,-152.135 0,-76.598 0,0"
             style="fill:#0d0906;fill-opacity:1;fill-rule:nonzero;stroke:none"
             id="path24" />
        </g>
        <g
           id="g26"
           transform="translate(105.3594,252.9062)">
          <path
             d="m 0,0 -14.094,-0.005 c 41.146,-67.948 98.917,-125.058 167.383,-165.401 70.601,-41.602 151.22,-64.371 233.504,-66.001 l -7.045,12.203 C 225.608,-213.672 82.1,-130.83 0,0"
             style="fill:#0d0906;fill-opacity:1;fill-rule:nonzero;stroke:none"
             id="path28" />
        </g>
        <g
           id="g30"
           transform="translate(518.3594,33.7012)">
          <path
             d="m 0,0 -7.046,-12.202 c 82.289,1.631 162.913,24.404 233.518,66.011 68.46,40.344 126.224,97.452 167.368,165.395 H 379.741 C 297.645,88.377 154.137,5.534 0,0"
             style="fill:#0d0906;fill-opacity:1;fill-rule:nonzero;stroke:none"
             id="path32" />
        </g>
        <g
           id="g34"
           transform="translate(914.7129,720.1978)">
          <path
             d="m 0,0 c 35.704,-67.162 54.52,-142.698 54.52,-219.291 0,-76.597 -18.817,-152.133 -54.523,-219.298 l 7.04,-12.196 c 38.932,70.52 59.483,150.43 59.483,231.494 0,81.061 -20.551,160.972 -59.48,231.489 z"
             style="fill:#0d0906;fill-opacity:1;fill-rule:nonzero;stroke:none"
             id="path36" />
        </g>
        <g
           id="g38"
           transform="translate(898.1045,748.9033)">
          <path
             d="M 0,0 14.097,0.001 C -27.041,67.936 -84.791,125.035 -153.239,165.379 -223.853,207 -304.487,229.78 -386.793,231.41 l 7.046,-12.202 C -225.593,213.675 -82.103,130.841 0,0"
             style="fill:#0d0906;fill-opacity:1;fill-rule:nonzero;stroke:none"
             id="path40" />
        </g>
        <g
           id="g42"
           transform="translate(367.7871,748.9048)">
          <path
             d="M 0,0 H 127.017 L 63.508,110 Z"
             style="fill:#0d0906;fill-opacity:1;fill-rule:nonzero;stroke:none"
             id="path44" />
        </g>
        <g
           id="g46"
           transform="translate(508.6611,748.9048)">
          <path
             d="M 0,0 H 127.017 L 63.508,110 Z"
             style="fill:#0d0906;fill-opacity:1;fill-rule:nonzero;stroke:none"
             id="path48" />
        </g>
        <g
           id="g50"
           transform="translate(649.5352,748.9048)">
          <path
             d="M 0,0 H 127.017 L 63.509,110 Z"
             style="fill:#0d0906;fill-opacity:1;fill-rule:nonzero;stroke:none"
             id="path52" />
        </g>
        <g
           id="g54"
           transform="translate(360.8584,248.7383)">
          <path
             d="m 0,0 -63.508,-110 127.017,0.001 z"
             style="fill:#0d0906;fill-opacity:1;fill-rule:nonzero;stroke:none"
             id="path56" />
        </g>
        <g
           id="g58"
           transform="translate(501.7314,228.7383)">
          <path
             d="M 0,0 46.188,-79.999 -46.188,-80 Z m 0,20 -63.508,-110 127.017,0.001 z"
             style="fill:#0d0906;fill-opacity:1;fill-rule:nonzero;stroke:none"
             id="path60" />
        </g>
        <g
           id="g62"
           transform="translate(642.6055,248.7383)">
          <path
             d="m 0,0 -63.508,-110 127.017,0.001 z"
             style="fill:#0d0906;fill-opacity:1;fill-rule:nonzero;stroke:none"
             id="path64" />
        </g>
        <g
           id="g66"
           transform="translate(783.4805,716.6567)">
          <path
             d="M 0,0 46.188,-79.999 -46.188,-80 Z m 0,20 -63.508,-110 127.017,0.001 z"
             style="fill:#0d0906;fill-opacity:1;fill-rule:nonzero;stroke:none"
             id="path68" />
        </g>
        <g
           id="g70"
           transform="translate(790.4082,504.8423)">
          <path
             d="M 0,0 H 127.017 L 63.508,110 Z"
             style="fill:#0d0906;fill-opacity:1;fill-rule:nonzero;stroke:none"
             id="path72" />
        </g>
        <g
           id="g74"
           transform="translate(501.7324,960.9878)">
          <path
             d="M 0,0 46.188,-79.999 -46.188,-80 Z m 0,20 -63.507,-110 127.016,0.001 z"
             style="fill:#0d0906;fill-opacity:1;fill-rule:nonzero;stroke:none"
             id="path76" />
        </g>
        <g
           id="g78"
           transform="translate(219.9849,716.6567)">
          <path
             d="M 0,0 46.188,-79.999 -46.188,-80 Z m 0,20 -63.508,-110 127.017,0.001 z"
             style="fill:#0d0906;fill-opacity:1;fill-rule:nonzero;stroke:none"
             id="path80" />
        </g>
        <g
           id="g82"
           transform="translate(86.0405,504.8945)">
          <path
             d="M 0,0 H 127.017 L 63.508,110 Z"
             style="fill:#0d0906;fill-opacity:1;fill-rule:nonzero;stroke:none"
             id="path84" />
        </g>
        <g
           id="g86"
           transform="translate(219.9854,492.9258)">
          <path
             d="m 0,0 -63.508,-110 127.017,0.001 z"
             style="fill:#0d0906;fill-opacity:1;fill-rule:nonzero;stroke:none"
             id="path88" />
        </g>
        <g
           id="g90"
           transform="translate(226.5356,748.9048)">
          <path
             d="M 0,0 H 127.017 L 63.508,110 Z"
             style="fill:#0d0906;fill-opacity:1;fill-rule:nonzero;stroke:none"
             id="path92" />
        </g>
        <g
           id="g94"
           transform="translate(783.4785,492.9258)">
          <path
             d="m 0,0 -63.508,-110 127.017,0.001 z"
             style="fill:#0d0906;fill-opacity:1;fill-rule:nonzero;stroke:none"
             id="path96" />
        </g>
        <g
           id="g98"
           transform="translate(713.0439,370.9023)">
          <path
             d="M 0,0 -63.509,-109.999 H 63.508 Z"
             style="fill:#0d0906;fill-opacity:1;fill-rule:nonzero;stroke:none"
             id="path100" />
        </g>
        <g
           id="g102"
           transform="translate(290.0435,370.9023)">
          <path
             d="M 0,0 -63.508,-109.999 H 63.509 Z"
             style="fill:#0d0906;fill-opacity:1;fill-rule:nonzero;stroke:none"
             id="path104" />
        </g>
        <g
           id="g106"
           transform="translate(149.5483,350.9023)">
          <path
             d="M 0,0 46.188,-79.999 H -46.188 Z M 0,20 -63.508,-89.999 H 63.509 Z"
             style="fill:#0d0906;fill-opacity:1;fill-rule:nonzero;stroke:none"
             id="path108" />
        </g>
        <g
           id="g110"
           transform="translate(853.9189,350.9023)">
          <path
             d="M 0,0 46.188,-79.999 H -46.188 Z M 0,20 -63.508,-89.999 H 63.509 Z"
             style="fill:#0d0906;fill-opacity:1;fill-rule:nonzero;stroke:none"
             id="path112" />
        </g>
        <g
           id="g114"
           transform="translate(494.8184,252.748)">
          <path
             d="m 0,0 h -127.017 l 63.508,-109.999 z"
             style="fill:#0d0906;fill-opacity:1;fill-rule:nonzero;stroke:none"
             id="path116" />
        </g>
        <g
           id="g118"
           transform="translate(635.6924,252.748)">
          <path
             d="m 0,0 h -127.017 l 63.508,-109.999 z"
             style="fill:#0d0906;fill-opacity:1;fill-rule:nonzero;stroke:none"
             id="path120" />
        </g>
        <g
           id="g122"
           transform="translate(776.5674,252.748)">
          <path
             d="m 0,0 h -127.017 l 63.508,-109.999 z"
             style="fill:#0d0906;fill-opacity:1;fill-rule:nonzero;stroke:none"
             id="path124" />
        </g>
        <g
           id="g126"
           transform="translate(360.873,752.9155)">
          <path
             d="M 0,0 63.509,109.999 -63.508,110 Z"
             style="fill:#0d0906;fill-opacity:1;fill-rule:nonzero;stroke:none"
             id="path128" />
        </g>
        <g
           id="g130"
           transform="translate(455.5581,852.915)">
          <path
             d="M 0,0 H 92.376 L 46.188,-80 Z m -17.32,10 63.508,-110 63.509,110 z"
             style="fill:#0d0906;fill-opacity:1;fill-rule:nonzero;stroke:none"
             id="path132" />
        </g>
        <g
           id="g134"
           transform="translate(642.6201,752.9155)">
          <path
             d="M 0,0 63.509,109.999 -63.508,110 Z"
             style="fill:#0d0906;fill-opacity:1;fill-rule:nonzero;stroke:none"
             id="path136" />
        </g>
        <g
           id="g138"
           transform="translate(737.3076,364.9961)">
          <path
             d="M 0,0 H 92.376 L 46.188,-79.999 Z M -17.32,10 46.188,-99.999 109.696,10 Z"
             style="fill:#0d0906;fill-opacity:1;fill-rule:nonzero;stroke:none"
             id="path140" />
        </g>
        <g
           id="g142"
           transform="translate(917.4395,496.8105)">
          <path
             d="m 0,0 h -127.017 l 63.508,-109.999 z"
             style="fill:#0d0906;fill-opacity:1;fill-rule:nonzero;stroke:none"
             id="path144" />
        </g>
        <g
           id="g146"
           transform="translate(501.7471,40.666)">
          <path
             d="M 0,0 -46.187,79.999 H 46.188 Z M -63.507,89.999 0,-20 63.509,89.999 Z"
             style="fill:#0d0906;fill-opacity:1;fill-rule:nonzero;stroke:none"
             id="path148" />
        </g>
        <g
           id="g150"
           transform="translate(173.812,364.9961)">
          <path
             d="M 0,0 H 92.375 L 46.188,-79.999 Z M -17.32,10 46.188,-99.999 109.696,10 Z"
             style="fill:#0d0906;fill-opacity:1;fill-rule:nonzero;stroke:none"
             id="path152" />
        </g>
        <g
           id="g154"
           transform="translate(213.0718,496.7588)">
          <path
             d="m 0,0 h -127.017 l 63.508,-109.999 z"
             style="fill:#0d0906;fill-opacity:1;fill-rule:nonzero;stroke:none"
             id="path156" />
        </g>
        <g
           id="g158"
           transform="translate(283.5093,618.7271)">
          <path
             d="m 0,0 h -127.017 l 63.508,-109.999 z"
             style="fill:#0d0906;fill-opacity:1;fill-rule:nonzero;stroke:none"
             id="path160" />
        </g>
        <g
           id="g162"
           transform="translate(353.5669,252.748)">
          <path
             d="m 0,0 h -127.017 l 63.508,-109.999 z"
             style="fill:#0d0906;fill-opacity:1;fill-rule:nonzero;stroke:none"
             id="path164" />
        </g>
        <g
           id="g166"
           transform="translate(719.9854,618.7275)">
          <path
             d="M 0,0 63.508,-110 127.017,0 Z"
             style="fill:#0d0906;fill-opacity:1;fill-rule:nonzero;stroke:none"
             id="path168" />
        </g>
        <g
           id="g170"
           transform="translate(713.0586,630.751)">
          <path
             d="M 0,0 63.509,109.999 -63.508,110 Z"
             style="fill:#0d0906;fill-opacity:1;fill-rule:nonzero;stroke:none"
             id="path172" />
        </g>
        <g
           id="g174"
           transform="translate(353.5669,740.75)">
          <path
             d="m 0,0 h -127.017 l 63.508,-109.999 z"
             style="fill:#0d0906;fill-opacity:1;fill-rule:nonzero;stroke:none"
             id="path176" />
        </g>
        <g
           id="g178"
           transform="translate(103.3755,730.7505)">
          <path
             d="M 0,0 H 92.375 L 46.188,-80 Z m -17.32,10 63.508,-110 63.508,110 z"
             style="fill:#0d0906;fill-opacity:1;fill-rule:nonzero;stroke:none"
             id="path180" />
        </g>
        <g
           id="g182"
           transform="translate(853.9336,650.751)">
          <path
             d="M 0,0 -46.188,80 46.188,79.999 Z M -63.508,90 0,-20 63.509,89.999 Z"
             style="fill:#0d0906;fill-opacity:1;fill-rule:nonzero;stroke:none"
             id="path184" />
        </g>
        <g
           id="g186"
           transform="translate(501.7305,513.4062)">
          <path
             d="m 0,0 c -6.892,0 -12.5,-5.607 -12.5,-12.5 0,-6.893 5.608,-12.5 12.5,-12.5 6.893,0 12.5,5.607 12.5,12.5 C 12.5,-5.607 6.893,0 0,0"
             style="fill:#0d0906;fill-opacity:1;fill-rule:nonzero;stroke:none"
             id="path188" />
        </g>
        <g
           id="g190"
           transform="translate(613.8516,314.709)">
          <path
             d="m 0,0 22.273,12.859 c 1.349,-0.822 2.862,-1.393 4.482,-1.656 V -46.34 Z M -29.199,-16.858 -6.928,-4 19.826,-50.34 -30.012,-21.565 c 0.526,1.378 0.826,2.868 0.826,4.429 0,0.094 -0.011,0.184 -0.013,0.278 M -76.437,-4 -54.171,-16.854 c -0.003,-0.095 -0.015,-0.187 -0.015,-0.282 0,-1.562 0.301,-3.053 0.828,-4.433 L -103.19,-50.34 Z m -93.635,-12.858 22.271,12.858 26.755,-46.339 -49.837,28.773 c 0.525,1.379 0.825,2.868 0.825,4.429 0,0.094 -0.012,0.185 -0.014,0.279 M -217.31,-4 l 22.267,-12.855 c -0.002,-0.094 -0.015,-0.187 -0.015,-0.282 0,-1.561 0.301,-3.051 0.827,-4.431 l -49.833,-28.771 z m -41.682,64.196 V 34.492 c -1.416,-0.777 -2.665,-1.821 -3.681,-3.064 L -312.5,60.196 Z m -62.437,73.008 c 1.619,0.262 3.132,0.833 4.481,1.655 L -294.675,122 -321.429,75.661 Z m -8,48.992 v -25.707 c -1.414,-0.778 -2.662,-1.821 -3.677,-3.062 l -49.831,28.769 z m 0,33.706 v -25.706 h -53.508 l 49.829,28.769 c 1.015,-1.242 2.264,-2.285 3.679,-3.063 m 34.754,34.491 -22.275,-12.861 c -1.348,0.822 -2.861,1.393 -4.479,1.655 v 57.545 z m 35.683,87.508 v -25.705 h -53.509 l 49.828,28.769 c 1.016,-1.243 2.265,-2.287 3.681,-3.064 m 34.754,34.492 -22.276,-12.861 c -1.348,0.822 -2.86,1.393 -4.478,1.655 v 57.545 z m 29.193,16.854 -22.265,-12.854 -26.753,46.339 49.83,-28.769 c -0.526,-1.38 -0.827,-2.869 -0.827,-4.431 0,-0.096 0.013,-0.189 0.015,-0.285 m 47.244,-12.854 -22.273,12.859 c 0.002,0.094 0.014,0.185 0.014,0.28 0,1.56 -0.3,3.049 -0.824,4.426 l 49.838,28.775 z m 93.746,12.922 -22.382,-12.922 -26.753,46.34 49.425,-28.537 c -0.265,-1.012 -0.422,-2.07 -0.422,-3.165 0,-0.583 0.054,-1.153 0.132,-1.716 m 47.127,-12.922 -22.389,12.927 c 0.077,0.561 0.13,1.129 0.13,1.711 0,1.094 -0.155,2.15 -0.42,3.161 l 49.434,28.541 z m 33.683,-16.702 c -1.099,-0.177 -2.149,-0.492 -3.132,-0.937 L 0,372.393 l 26.755,46.34 z m 8,-47.495 v 24.213 c 1.796,0.989 3.32,2.408 4.442,4.115 l 49.066,-28.328 z m 57.962,-74.666 -22.279,12.863 26.754,46.341 v -57.549 c -1.617,-0.263 -3.129,-0.834 -4.475,-1.655 m 12.475,-47.334 v 25.702 c 1.416,0.778 2.666,1.822 3.682,3.065 L 158.7,190.196 Z m 0,-33.707 v 25.707 H 158.7 l -49.831,-28.769 c -1.015,1.241 -2.263,2.284 -3.677,3.062 M 70.438,122 92.712,134.86 c 1.349,-0.822 2.861,-1.393 4.48,-1.655 V 75.66 Z M 34.755,34.488 V 60.196 H 88.263 L 38.432,31.427 c -1.015,1.241 -2.263,2.283 -3.677,3.061 m -67.062,21.468 c 0.101,0.114 0.206,0.224 0.303,0.342 L 17.079,27.96 c -0.525,-1.38 -0.826,-2.87 -0.826,-4.432 0,-0.094 0.012,-0.185 0.015,-0.28 L -6,10.393 Z m -2.896,-62.425 c -1.349,0.823 -2.86,1.395 -4.479,1.657 V 51.87 c 0.152,0.025 0.307,0.04 0.457,0.07 L -12.928,6.393 Z m -8.937,58.408 c 0.151,-0.03 0.306,-0.044 0.458,-0.07 v -56.68 c -1.62,-0.261 -3.133,-0.833 -4.482,-1.655 L -70.437,6.393 Z M -176.077,-6.469 c -1.348,0.823 -2.86,1.394 -4.479,1.657 v 56.684 c 0.152,0.024 0.307,0.04 0.457,0.07 l 26.298,-45.549 z m -8.935,58.41 c 0.15,-0.03 0.305,-0.045 0.456,-0.07 V -4.812 c -1.618,-0.261 -3.131,-0.833 -4.48,-1.655 L -211.31,6.393 Z M -246.515,12.861 -224.238,0 -250.992,-46.34 v 57.546 c 1.618,0.262 3.13,0.833 4.477,1.655 m 52.126,47.335 c 0.049,-0.145 0.103,-0.288 0.158,-0.431 l -49.083,-28.338 c -1.015,1.241 -2.263,2.285 -3.678,3.062 v 25.707 z m -117.365,89.764 49.082,28.338 c 0.096,-0.118 0.202,-0.229 0.303,-0.343 l -26.306,-45.562 -22.267,12.855 c 0.002,0.095 0.014,0.186 0.014,0.28 0,1.562 -0.301,3.052 -0.826,4.432 m 46.927,32.236 c 0.05,-0.145 0.104,-0.289 0.159,-0.431 l -49.082,-28.338 c -1.016,1.242 -2.264,2.285 -3.679,3.062 v 25.707 z m -52.602,33.706 c 1.415,0.778 2.663,1.822 3.679,3.063 l 49.082,-28.338 c -0.055,-0.143 -0.109,-0.285 -0.159,-0.431 h -52.602 z m 55.06,-21.465 c -0.101,-0.114 -0.207,-0.224 -0.304,-0.343 l -49.082,28.338 c 0.525,1.38 0.826,2.869 0.826,4.431 0,0.095 -0.012,0.186 -0.014,0.281 L -288.675,240 Z m 15.377,143.467 c 1.414,0.778 2.662,1.821 3.677,3.062 l 49.083,-28.339 c -0.054,-0.143 -0.108,-0.286 -0.158,-0.431 h -52.602 z m 55.06,-21.467 c -0.101,-0.115 -0.208,-0.225 -0.304,-0.343 l -49.084,28.339 c 0.525,1.379 0.825,2.869 0.825,4.43 0,0.095 -0.012,0.185 -0.014,0.279 L -218.238,362 Z m 2.897,62.423 c 1.349,-0.821 2.861,-1.392 4.479,-1.653 v -56.686 c -0.151,-0.025 -0.306,-0.04 -0.456,-0.07 L -211.31,366 Z m 8.935,-58.41 c -0.149,0.03 -0.304,0.045 -0.456,0.07 v 56.688 c 1.618,0.263 3.129,0.834 4.476,1.655 L -153.801,366 Z m 133.29,59.192 c 0.983,-0.444 2.032,-0.759 3.129,-0.936 v -56.682 c -0.413,-0.067 -0.818,-0.153 -1.215,-0.259 L -70.437,366 Z m 8.342,-57.879 c -0.397,0.106 -0.802,0.192 -1.213,0.259 v 56.686 c 1.095,0.177 2.142,0.493 3.122,0.936 L -12.928,366 Z m 55.139,22.433 -47.906,-27.659 c -0.177,0.268 -0.368,0.525 -0.563,0.779 L -6,362 16.38,349.08 c -0.078,-0.562 -0.132,-1.131 -0.132,-1.714 0,-1.097 0.156,-2.156 0.423,-3.17 m -46.109,-32 c -0.046,0.225 -0.111,0.442 -0.168,0.662 l 47.909,27.661 c 1.124,-1.71 2.651,-3.13 4.452,-4.118 V 312.196 Z M 87.521,222.434 38.432,194.092 c -0.096,0.118 -0.203,0.228 -0.302,0.342 L 64.438,240 86.71,227.141 c -0.003,-0.094 -0.015,-0.186 -0.015,-0.281 0,-1.56 0.3,-3.048 0.826,-4.426 M 40.584,190.196 c -0.049,0.145 -0.104,0.287 -0.157,0.429 l 49.087,28.341 c 1.015,-1.242 2.263,-2.286 3.678,-3.065 v -25.705 z m 52.608,-33.703 c -1.416,-0.778 -2.666,-1.822 -3.681,-3.065 l -49.085,28.339 c 0.054,0.142 0.108,0.285 0.158,0.429 H 93.192 Z M 38.13,177.959 c 0.1,0.114 0.205,0.223 0.302,0.341 l 49.084,-28.339 c -0.526,-1.38 -0.827,-2.869 -0.827,-4.431 0,-0.095 0.012,-0.187 0.015,-0.282 L 64.438,132.393 Z M 22.755,34.49 c -1.416,-0.777 -2.664,-1.821 -3.68,-3.063 l -49.084,28.339 c 0.054,0.142 0.109,0.285 0.157,0.43 H 22.755 Z M -99.637,23.252 c 0.002,0.094 0.014,0.185 0.014,0.279 0,1.561 -0.3,3.048 -0.824,4.427 l 49.085,28.339 c 0.096,-0.118 0.202,-0.228 0.303,-0.343 L -77.364,10.393 Z m -10.481,-12.045 c 1.617,0.263 3.128,0.834 4.475,1.655 L -83.364,0 -110.118,-46.34 Z m -8.48,1.652 c 1.348,-0.821 2.861,-1.391 4.48,-1.653 V -46.34 L -140.873,0 Z m -54.28,43.44 49.082,-28.337 c -0.526,-1.38 -0.827,-2.869 -0.827,-4.431 0,-0.095 0.013,-0.189 0.015,-0.284 l -22.265,-12.854 -26.308,45.565 c 0.101,0.114 0.206,0.224 0.303,0.341 m -68.441,-28.34 49.084,28.339 c 0.096,-0.118 0.202,-0.228 0.303,-0.343 l -26.306,-45.562 -22.27,12.857 c 0.002,0.094 0.014,0.186 0.014,0.28 0,1.561 -0.3,3.05 -0.825,4.429 m -5.673,65.951 c 1.412,0.778 2.658,1.819 3.672,3.059 l 49.089,-28.342 c -0.055,-0.143 -0.109,-0.285 -0.159,-0.431 h -52.602 z m -15.682,3.054 c 1.016,-1.242 2.266,-2.286 3.682,-3.063 V 68.196 H -312.5 Z m -2.811,8.183 c -0.002,-0.094 -0.014,-0.186 -0.014,-0.281 0,-1.563 0.301,-3.054 0.828,-4.435 l -49.83,-28.77 26.754,46.339 z m 10.493,68.724 v -56.679 c -1.621,-0.261 -3.136,-0.834 -4.486,-1.657 l -22.269,12.858 26.298,45.548 c 0.15,-0.03 0.305,-0.045 0.457,-0.07 m -4.48,82.989 c 1.348,-0.822 2.861,-1.394 4.48,-1.656 v -56.683 c -0.152,-0.024 -0.307,-0.04 -0.457,-0.07 L -281.747,244 Z m -5.193,15.099 c -0.525,-1.379 -0.826,-2.869 -0.826,-4.431 0,-0.093 0.012,-0.185 0.014,-0.278 l -22.27,-12.857 -26.754,46.339 z m 5.673,6.53 c -1.414,-0.778 -2.663,-1.821 -3.678,-3.063 l -49.831,28.77 h 53.509 z m 64.602,25.707 c 0.049,-0.145 0.104,-0.288 0.159,-0.432 l -49.082,-28.337 c -1.016,1.242 -2.264,2.285 -3.679,3.062 v 25.707 z m 69.788,44.946 c -0.002,-0.094 -0.014,-0.186 -0.014,-0.281 0,-1.56 0.301,-3.049 0.825,-4.427 l -49.088,-28.342 c -0.096,0.118 -0.202,0.228 -0.302,0.342 L -146.873,362 Z m 10.484,12.044 c -1.618,-0.263 -3.129,-0.834 -4.477,-1.655 l -22.278,12.862 26.755,46.34 z m 8.479,-1.653 c -1.348,0.821 -2.861,1.392 -4.479,1.654 v 57.546 l 26.754,-46.34 z m 53.504,-42.992 -48.306,27.89 c 0.525,1.379 0.826,2.868 0.826,4.43 0,0.096 -0.013,0.189 -0.015,0.284 L -77.364,362 -51.569,317.323 c -0.198,-0.254 -0.389,-0.512 -0.566,-0.782 m 74.89,-38.049 c -1.416,-0.778 -2.664,-1.822 -3.68,-3.064 l -49.614,28.645 c 0.02,0.04 0.039,0.082 0.06,0.123 h 53.234 z m 15.68,-3.066 c -1.016,1.243 -2.264,2.287 -3.68,3.065 v 25.705 h 53.511 z m 2.804,-8.176 c 0.003,0.095 0.015,0.186 0.015,0.281 0,1.56 -0.301,3.049 -0.825,4.428 L 90.263,300.73 63.51,254.393 Z M 30.755,198.521 v 56.686 c 1.618,0.261 3.13,0.833 4.478,1.654 L 57.51,244 31.211,198.451 c -0.149,0.029 -0.305,0.045 -0.456,0.07 m 4.479,-82.99 c -1.348,0.823 -2.861,1.394 -4.479,1.656 v 56.685 c 0.151,0.024 0.307,0.04 0.457,0.07 L 57.51,128.393 Z m 5.196,-15.098 c 0.524,1.379 0.825,2.868 0.825,4.429 0,0.095 -0.012,0.187 -0.015,0.282 L 63.51,118 90.264,71.66 Z m -5.675,-6.532 c 1.415,0.779 2.664,1.822 3.679,3.064 L 88.264,68.196 H 34.755 Z M -30.01,68.625 19.076,96.965 c 1.016,-1.242 2.264,-2.285 3.679,-3.064 V 68.196 h -52.608 c -0.048,0.145 -0.102,0.287 -0.157,0.429 m -80.108,-32.77 v 24.341 h 56.601 c 0.05,-0.145 0.105,-0.288 0.16,-0.431 l -49.085,-28.339 c -1.892,2.315 -4.599,3.929 -7.676,4.429 m -60.608,24.341 h 56.608 v -24.34 c -3.08,-0.497 -5.79,-2.111 -7.683,-4.427 l -49.082,28.338 c 0.054,0.142 0.108,0.285 0.157,0.429 m -70.597,49.094 21.086,12.174 28.305,-49.026 c -0.101,-0.116 -0.207,-0.225 -0.304,-0.343 l -49.089,28.342 c 0.525,1.378 0.826,2.868 0.826,4.429 0,1.56 -0.3,3.047 -0.824,4.424 m -9.669,145.914 c 3.079,0.498 5.787,2.112 7.68,4.427 l 21.074,-12.167 -28.298,-49.013 c -0.15,0.03 -0.304,0.045 -0.456,0.07 z m 59.059,44.751 -28.305,-49.027 -21.079,12.17 c 0.525,1.38 0.826,2.869 0.826,4.43 0,1.563 -0.301,3.053 -0.827,4.433 l 49.082,28.337 c 0.096,-0.119 0.202,-0.229 0.303,-0.343 m 77.815,36.582 v -24.341 h -56.609 c -0.048,0.145 -0.103,0.287 -0.157,0.429 l 49.088,28.341 c 1.892,-2.316 4.599,-3.929 7.678,-4.429 m 60.183,-24.341 h -56.183 v 24.34 c 3.079,0.498 5.788,2.112 7.681,4.428 l 48.672,-28.101 c -0.058,-0.221 -0.124,-0.44 -0.17,-0.667 m 71.016,-49.098 -21.08,-12.17 -28.755,49.804 49.834,-28.771 c -0.525,-1.379 -0.826,-2.869 -0.826,-4.43 0,-1.563 0.301,-3.053 0.827,-4.433 m 1.996,-150.337 -21.076,12.168 28.297,49.012 c 0.15,-0.03 0.305,-0.045 0.457,-0.07 v -56.684 c -3.078,-0.499 -5.785,-2.112 -7.678,-4.426 M -32.308,72.434 -4,121.464 17.081,109.293 c -0.525,-1.379 -0.826,-2.869 -0.826,-4.431 0,-1.561 0.301,-3.05 0.826,-4.429 l -49.087,-28.34 c -0.096,0.117 -0.201,0.226 -0.302,0.341 m -218.228,101.508 28.298,-49.013 -21.079,-12.17 c -1.891,2.316 -4.598,3.93 -7.675,4.43 v 56.683 c 0.152,0.024 0.306,0.04 0.456,0.07 m 208.855,-28.413 h 0.002 l -10e-4,-0.002 z m -70.438,-36.049 -66.437,38.358 v 76.715 l 66.436,38.357 66.439,-38.358 -0.001,-76.714 z m 70.437,117.381 h -10e-4 l 10e-4,0.001 z m -140.876,0.008 0.002,-0.005 h -0.005 z m 209.313,28.337 v -56.685 c -0.152,-0.024 -0.307,-0.04 -0.456,-0.069 l -28.298,49.012 21.075,12.167 c 1.893,-2.314 4.601,-3.927 7.679,-4.425 M 38.433,15.632 62.974,1.463 l 2,3.465 L 40.428,19.1 c 0.524,1.379 0.825,2.867 0.825,4.428 0,1.562 -0.301,3.051 -0.826,4.431 l 55.838,32.237 1.739,2.376 0.005,-0.002 1.183,1.626 0.817,1.839 -0.005,0.002 0.788,1.788 0.4,0.906 v 0.001 64.474 c 3.078,0.499 5.784,2.112 7.676,4.427 l 24.542,-14.169 2,3.465 -24.547,14.172 c 0.526,1.378 0.826,2.868 0.826,4.429 0,1.561 -0.3,3.05 -0.825,4.429 l 58.015,33.494 0.75,0.434 v 2.309 2.311 l -2.929,1.689 -55.831,32.234 c 0.526,1.38 0.826,2.869 0.826,4.43 0,1.563 -0.3,3.055 -0.827,4.435 l 24.542,14.169 -2,3.464 -24.538,-14.167 c -1.893,2.315 -4.601,3.927 -7.68,4.425 v 64.476 l -1.996,4.531 -0.004,0.002 v 0.001 l -2.925,3.998 -0.003,10e-4 -10e-4,0.001 h -0.001 l -55.435,32.006 c 0.265,1.013 0.421,2.069 0.421,3.164 0,2.023 -0.494,3.928 -1.351,5.621 l 25.077,14.477 -2,3.464 -25.438,-14.686 c -1.807,1.791 -4.16,3.022 -6.781,3.447 v 69.353 l -2,1.155 -2,1.154 -2.928,-1.69 h -0.001 l -55.062,-31.79 c -1.885,2.871 -4.92,4.912 -8.445,5.484 v 26.841 h -4 v -26.839 c -3.528,-0.57 -6.566,-2.61 -8.454,-5.483 l -55.055,31.787 -0.002,0.003 -4.926,0.533 -2,-0.218 v 0 l -2.928,-0.318 v 0 l -55.832,-32.235 c -1.892,2.316 -4.599,3.931 -7.678,4.43 v 28.34 h -4 v -28.339 c -3.079,-0.497 -5.789,-2.111 -7.682,-4.427 l -55.825,32.23 -0.001,0.002 -0.001,-10e-4 -2.924,1.689 -2.003,-1.154 -2,-1.154 v -3.38 h -0.001 l 0.001,-10e-4 v -64.473 c -3.079,-0.498 -5.788,-2.111 -7.681,-4.427 l -24.537,14.167 -2,-3.464 24.542,-14.17 c -0.526,-1.379 -0.827,-2.869 -0.827,-4.431 0,-1.562 0.301,-3.052 0.827,-4.432 l -55.832,-32.235 -2.93,-4 v -0.001 l -2,-4.533 0.001,-10e-4 v -64.474 c -3.078,-0.498 -5.786,-2.111 -7.679,-4.427 l -24.539,14.168 -2,-3.464 24.544,-14.171 c -0.525,-1.379 -0.826,-2.869 -0.826,-4.43 0,-1.562 0.301,-3.051 0.826,-4.431 l -55.834,-32.236 h -0.087 l -2.819,-1.677 -0.023,-0.014 10e-4,-2.309 v -0.181 l -0.005,-2.126 58.768,-33.929 c -0.525,-1.38 -0.826,-2.87 -0.826,-4.432 0,-1.561 0.3,-3.049 0.825,-4.428 l -24.544,-14.171 2,-3.465 24.54,14.168 c 1.892,-2.316 4.6,-3.93 7.678,-4.428 V 68.732 l 1.188,-2.695 h -0.001 l 0.6,-1.358 0.212,-0.482 v -0.001 l 2.927,-4 h 0.002 l 55.833,-32.235 c -0.525,-1.38 -0.826,-2.869 -0.826,-4.431 0,-1.562 0.301,-3.052 0.827,-4.431 l -24.543,-14.17 2,-3.465 24.538,14.167 c 1.894,-2.315 4.602,-3.928 7.68,-4.426 v -67.854 l 2,-1.155 2.001,-1.154 2.926,1.689 0.001,-0.001 v 0.001 l 55.829,32.234 c 1.893,-2.316 4.601,-3.929 7.679,-4.427 v -28.342 h 4 v 28.343 c 3.078,0.499 5.785,2.112 7.678,4.428 l 55.828,-32.234 4.932,-0.537 4.928,0.535 55.828,32.233 c 1.893,-2.315 4.601,-3.928 7.68,-4.425 v -28.343 h 4 v 28.344 c 3.077,0.499 5.784,2.112 7.675,4.427 l 55.834,-32.236 v -0.001 0.001 l 2.932,-1.692 1.996,1.157 2,1.155 v 3.379 0.001 64.473 c 3.078,0.499 5.785,2.112 7.678,4.428"
             style="fill:#0d0906;fill-opacity:1;fill-rule:nonzero;stroke:none"
             id="path192" />
        </g>
      </g>
    </g>
  </g>
</svg>
